<?xml version="1.0" encoding="UTF-8"?>
<svg id="Layer_1" xmlns="http://www.w3.org/2000/svg" version="1.1" xmlns:xlink="http://www.w3.org/1999/xlink" viewBox="0 0 73 73">
  <!-- Generator: Adobe Illustrator 29.4.0, SVG Export Plug-In . SVG Version: 2.1.0 Build 152)  -->
  <defs>
    <style>
      .st0 {
        fill: #11171c;
      }

      .st1 {
        fill: #fff;
      }

      .st2, .st3 {
        fill: none;
      }

      .st3 {
        stroke: #5cb0e2;
        stroke-miterlimit: 10;
      }

      .st4 {
        fill: #455a75;
      }

      .st5 {
        fill: #f93535;
      }

      .st6 {
        clip-path: url(#clippath);
      }

      .st7 {
        fill: #231f20;
        opacity: 0;
      }
    </style>
    <clipPath id="clippath">
      <path class="st2" d="M29.3,55.1c5.3,0,10.7,0,16,0,2.6,0,5.1,0,7.7,0,0-2.5,0-5,0-7.5,0-7.2,0-14.4,0-21.6,0-3.3,0-6.6,0-9.9-2.6,0-5.1,0-7.7,0-5.3,0-10.7,0-16,0,0,3.3,0,6.6,0,9.9,0,7.2,0,14.4,0,21.6,0,2.5,0,5,0,7.5Z"/>
    </clipPath>
  </defs>
  <g>
    <g>
      <path d="M54,16.3v-.7c0-2.3-1.7-4.2-3.7-4.2h-18.2c-2.1,0-3.7,1.9-3.7,4.2v2.5c-.2.1-.3.4-.3.7v2.9c0,.3.1.6.4.7v.7s0,.1,0,.2v1c0,0,0,.1,0,.2v33.5c0,2.3,1.7,4.2,3.8,4.2h18.2c2.1,0,3.7-1.9,3.7-4.2V19.7c0-.1.2-.3.2-.5v-2.4c0-.2,0-.4-.2-.5Z"/>
      <path class="st0" d="M54,15.7v-.7c0-2.3-1.7-4.2-3.7-4.2h-18.2c-2.1,0-3.7,1.9-3.7,4.2v2.5c-.2.1-.3.4-.3.7v2.9c0,.3.1.6.4.7v.7s0,.1,0,.2v1c0,0,0,.1,0,.2v33.5c0,2.3,1.7,4.2,3.8,4.2h18.2c2.1,0,3.7-1.9,3.7-4.2V19.1c0-.1.2-.3.2-.5v-2.4c0-.2,0-.4-.2-.5Z"/>
      <path class="st7" d="M54,15.5v-.7c0-2.3-1.7-4.2-3.7-4.2h-18.2c-2.1,0-3.7,1.9-3.7,4.2v2.5c-.2.1-.3.4-.3.7v2.9c0,.3.1.6.4.7v.7s0,.1,0,.2v1c0,0,0,.1,0,.2v33.5c0,2.3,1.7,4.2,3.8,4.2h18.2c2.1,0,3.7-1.9,3.7-4.2V19c0-.1.2-.3.2-.5v-2.4c0-.2,0-.4-.2-.5Z"/>
      <path class="st1" d="M44.1,13.9c0,.2-.2.3-.5.3h-5c-.3,0-.5-.1-.5-.3h0c0-.2.2-.3.5-.3h5c.3,0,.5.1.5.3h0Z"/>
      <path class="st2" d="M29.3,55.1c5.3,0,10.7,0,16,0,2.6,0,5.1,0,7.7,0,0-2.5,0-5,0-7.5,0-7.2,0-14.4,0-21.6,0-3.3,0-6.6,0-9.9-2.6,0-5.1,0-7.7,0-5.3,0-10.7,0-16,0,0,3.3,0,6.6,0,9.9,0,7.2,0,14.4,0,21.6,0,2.5,0,5,0,7.5Z"/>
      <g class="st6">
        <rect class="st4" x="16.9" y="14.3" width="49" height="49" transform="translate(0 0) rotate(0)"/>
      </g>
      <path class="st7" d="M32.1,11c-1.9,0-3.5,1.8-3.5,3.9v42.5c0,1.8,1.2,3.4,2.7,3.8l11.2-50.1h-10.4Z"/>
    </g>
    <g>
      <rect class="st5" x="18.8" y="18.2" width="29.4" height="19.6" rx="2.7" ry="2.7"/>
      <polygon class="st5" points="43.5 37 39.8 42.6 39.2 34.7 43.5 37"/>
    </g>
    <g>
      <circle class="st1" cx="33.5" cy="27.8" r="7" transform="translate(-1.7 53.5) rotate(-75.8)"/>
      <path d="M32.7,28.8l-.2-3.4c0-.7,0-1.1,0-1.4s.1-.7.3-.9c.2-.2.5-.3.8-.3s.7.1.8.4c.1.3.2.7.2,1.2s0,.6,0,.9l-.3,3.5c0,.4-.1.7-.2,1-.1.2-.3.3-.5.3s-.4-.1-.5-.3c0-.2-.2-.5-.2-1ZM33.5,33.5c-.3,0-.5,0-.8-.3-.2-.2-.3-.4-.3-.8s.1-.5.3-.7c.2-.2.5-.3.8-.3s.5.1.8.3c.2.2.3.5.3.7s-.1.6-.3.8c-.2.2-.5.3-.7.3Z"/>
    </g>
  </g>
  <rect class="st3" x=".5" y=".5" width="72" height="72"/>
</svg>