<?xml version="1.0" encoding="UTF-8"?>
<svg id="Layer_1" xmlns="http://www.w3.org/2000/svg" version="1.1" viewBox="0 0 73 73">
  <!-- Generator: Adobe Illustrator 29.4.0, SVG Export Plug-In . SVG Version: 2.1.0 Build 152)  -->
  <defs>
    <style>
      .st0 {
        fill: #31374a;
      }

      .st0, .st1, .st2, .st3, .st4 {
        fill-rule: evenodd;
      }

      .st1 {
        fill: #f68a22;
      }

      .st2 {
        fill: #0f1323;
      }

      .st5 {
        fill: none;
        stroke: #5cb0e2;
        stroke-miterlimit: 10;
      }

      .st3, .st6 {
        fill: #b79a6a;
      }

      .st7 {
        fill: #d66427;
      }

      .st8 {
        fill: #d6cdbc;
      }

      .st4 {
        fill: #fef5e5;
      }
    </style>
  </defs>
  <rect class="st7" x="27.1" y="31.5" width="7.5" height="18.9"/>
  <path class="st1" d="M34.6,32.5v17.9h-4.1v-17c0-.5.4-.9.9-.9h3.3Z"/>
  <path class="st4" d="M26.8,31.5h8.2c.3,0,.5-.2.5-.5h0c0-.3-.2-.5-.5-.5h-8.2c-.3,0-.5.2-.5.5h0c0,.3.2.5.5.5h0Z"/>
  <path class="st2" d="M29.2,11.6h3.3c.2,0,.4.2.4.4v18.5h-4.1V12c0-.2.2-.4.4-.4h0Z"/>
  <path class="st0" d="M32.9,15.3v15.2h-2.4v-14.3c0-.5.4-.9.9-.9h1.5Z"/>
  <rect class="st7" x="38.4" y="31.5" width="7.5" height="18.9"/>
  <path class="st1" d="M45.9,32.5v17.9h-4.1v-17c0-.5.4-.9.9-.9h3.3Z"/>
  <path class="st4" d="M38,31.5h8.2c.3,0,.5-.2.5-.5h0c0-.3-.2-.5-.5-.5h-8.2c-.3,0-.5.2-.5.5h0c0,.3.2.5.5.5h0Z"/>
  <path class="st2" d="M40.5,11.6h3.3c.2,0,.4.2.4.4v18.5h-4.1V12c0-.2.2-.4.4-.4h0Z"/>
  <path class="st0" d="M44.2,15.3v15.2h-2.4v-14.3c0-.5.4-.9.9-.9h1.5Z"/>
  <rect class="st6" x="18.9" y="41.2" width="35.2" height="24.5"/>
  <path class="st3" d="M18.6,39.9h35.8c.3,0,.6.3.6.6h0c0,.3-.3.6-.6.6H18.6c-.3,0-.6-.3-.6-.6h0c0-.3.3-.6.6-.6h0Z"/>
  <path class="st0" d="M28.1,65.6h16.7v-12.4c0-.5-.4-.9-.9-.9h-15.1c-.5,0-.8.4-.8.9v12.4Z"/>
  <path class="st2" d="M30.7,61h11.7c.3,0,.6.3.6.6h0c0,.3-.3.6-.6.6h-11.7c-.3,0-.6-.3-.6-.6h0c0-.3.3-.6.6-.6h0ZM30.7,54.2h11.7c.3,0,.6.3.6.6h0c0,.3-.3.6-.6.6h-11.7c-.3,0-.6-.3-.6-.6h0c0-.3.3-.6.6-.6h0ZM30.7,56.5h11.7c.3,0,.6.3.6.6h0c0,.3-.3.6-.6.6h-11.7c-.3,0-.6-.3-.6-.6h0c0-.3.3-.6.6-.6h0ZM30.7,58.8h11.7c.3,0,.6.3.6.6h0c0,.3-.3.6-.6.6h-11.7c-.3,0-.6-.3-.6-.6h0c0-.3.3-.6.6-.6h0Z"/>
  <rect class="st8" x="18.9" y="41.2" width="35.2" height="1.1"/>
  <path class="st1" d="M36.5,43.2c2.3,0,4.2,1.9,4.2,4.2s-1.9,4.2-4.2,4.2-4.2-1.9-4.2-4.2,1.9-4.2,4.2-4.2h0Z"/>
  <path class="st0" d="M35.8,46.2l-1-1.8c.5-.3,1.1-.5,1.7-.5s1.2.2,1.7.5l-1,1.8c-.2,0-.4-.2-.7-.2s-.5,0-.7.2h0ZM35.8,48.4l-1,1.8c-.5-.3-.9-.7-1.2-1.2-.3-.5-.4-1.1-.4-1.7h2c0,.5.3.9.7,1.1h0ZM37.8,47.3h2.1c0,.6-.1,1.1-.4,1.7-.3.5-.7,1-1.2,1.2l-1-1.8c.4-.2.6-.6.6-1.1h0Z"/>
  <path class="st0" d="M36.5,46.5c.4,0,.8.3.8.8s-.3.8-.8.8-.8-.3-.8-.8.3-.8.8-.8h0Z"/>
  <rect class="st5" x=".5" y=".5" width="72" height="72"/>
</svg>