<?xml version="1.0" encoding="UTF-8"?>
<svg id="Layer_1" xmlns="http://www.w3.org/2000/svg" version="1.1" viewBox="0 0 73 73">
  <!-- Generator: Adobe Illustrator 29.4.0, SVG Export Plug-In . SVG Version: 2.1.0 Build 152)  -->
  <defs>
    <style>
      .st0 {
        fill: none;
        stroke: #5cb0e2;
        stroke-miterlimit: 10;
      }

      .st1 {
        fill: #ff1e2d;
      }

      .st2 {
        fill: #febe00;
      }

      .st3 {
        fill: #56060e;
        opacity: .2;
      }
    </style>
  </defs>
  <g>
    <path class="st1" d="M56,48.1c.7-4.3.4-8.7-1-12.8-1.4-4.1-3.7-8-5.8-11.6.8,3.3-.7,6.8-3.4,8.5-.3-3.1,0-6.3-.6-9.4-1.2-6.8-6.4-12.6-12.7-14,2.1,7.7-.5,16.4-6.6,21-.3-2.3-.8-4.5-2.2-6.2-.2,3.4-1.2,6.7-2.8,9.6-1.4,2.7-5.3,8.6-4.1,15.3,4.3,24,36.3,17.4,39.1-.5Z"/>
    <path class="st2" d="M25.6,52.3c-.4-2.4-.2-4.9.6-7.1.8-2.3,2.1-4.5,3.2-6.5-.4,1.8.4,3.8,1.9,4.8.2-1.7,0-3.5.3-5.2.6-3.8,3.6-7,7.1-7.8-1.2,4.3.3,9.1,3.7,11.7.2-1.3.4-2.5,1.2-3.5.1,1.9.7,3.7,1.5,5.4.8,1.5,3,4.8,2.3,8.5-2.4,13.4-20.3,9.7-21.9-.3Z"/>
    <path class="st3" d="M55,35.3c-1.4-4.1-3.7-8-5.8-11.6.8,3.3-.7,6.8-3.4,8.5-.3-3.1,0-6.3-.6-9.4-1.1-6.5-6.2-12.5-12.7-14,0,0,10.6,15.9,3.4,23.9-9.2,10.3-2.6,31.3-2.6,31.3,10,.7,21-5.8,22.6-16,.7-4.3.4-8.7-1-12.8Z"/>
  </g>
  <rect class="st0" x=".5" y=".5" width="72" height="72"/>
</svg>