<?xml version="1.0" encoding="UTF-8"?>
<svg xmlns="http://www.w3.org/2000/svg" version="1.1" xmlns:xlink="http://www.w3.org/1999/xlink" viewBox="0 0 73 73">
  <!-- Generator: Adobe Illustrator 29.4.0, SVG Export Plug-In . SVG Version: 2.1.0 Build 152)  -->
  <defs>
    <style>
      .st0 {
        fill: #fdfdfd;
        mix-blend-mode: screen;
      }

      .st0, .st1 {
        opacity: .4;
      }

      .st2 {
        fill: #5a6368;
      }

      .st2, .st3, .st4, .st5, .st6, .st7, .st8, .st9, .st10 {
        fill-rule: evenodd;
      }

      .st3, .st11 {
        fill: #5cb0e2;
      }

      .st12 {
        fill: #7aa9d3;
      }

      .st13 {
        fill: url(#linear-gradient1);
      }

      .st4, .st14 {
        fill: #fefefe;
      }

      .st15 {
        fill: #9e7800;
      }

      .st5 {
        fill: #88cbe5;
      }

      .st16 {
        fill: none;
        stroke: #5cb0e2;
        stroke-miterlimit: 10;
      }

      .st1 {
        fill: #8485be;
        mix-blend-mode: multiply;
      }

      .st17 {
        isolation: isolate;
      }

      .st6 {
        fill: #9edcf7;
      }

      .st18 {
        fill: #479dd2;
      }

      .st19, .st7 {
        fill: #e1f4fd;
      }

      .st20 {
        fill: #cce2eb;
      }

      .st21 {
        fill: url(#linear-gradient);
      }

      .st8 {
        fill: #40484c;
      }

      .st9 {
        fill: #8e9b0d;
      }

      .st10 {
        fill: #d8a400;
      }
    </style>
    <linearGradient id="linear-gradient" x1="45.8" y1="33.4" x2="51.2" y2="55.5" gradientUnits="userSpaceOnUse">
      <stop offset="0" stop-color="#bbd1e6"/>
      <stop offset="1" stop-color="#b1c2de"/>
    </linearGradient>
    <linearGradient id="linear-gradient1" x1="55.6" y1="34.3" x2="61.9" y2="54.5" xlink:href="#linear-gradient"/>
  </defs>
  <g class="st17">
    <g id="Layer_1">
      <g>
        <polygon class="st10" points="11.1 26.3 37.7 14.3 63.8 26.3 63.8 55.4 11.1 55.4 11.1 26.3"/>
        <polygon class="st9" points="37.5 12.6 7 26.4 7 29.7 37.5 15.8 67.9 29.7 67.9 26.4 37.5 12.6"/>
        <rect class="st14" x="13.7" y="30" width="9.8" height="9.8"/>
        <rect class="st12" x="14.8" y="31.1" width="7.7" height="7.7"/>
        <polygon class="st4" points="18.1 30.2 19.2 30.2 19.2 34.4 23.4 34.4 23.4 35.4 19.2 35.4 19.2 39.6 18.1 39.6 18.1 35.4 13.9 35.4 13.9 34.4 18.1 34.4 18.1 30.2"/>
        <path class="st4" d="M26.3,30h9.8v9.8h-9.8v-9.8h0Z"/>
        <path class="st4" d="M38.9,30h9.8v9.8h-9.8v-9.8h0Z"/>
        <rect class="st14" x="51.5" y="30" width="9.8" height="9.8"/>
        <rect class="st12" x="52.5" y="31.1" width="7.7" height="7.7"/>
        <polygon class="st4" points="55.9 30.2 56.9 30.2 56.9 34.4 61.1 34.4 61.1 35.4 56.9 35.4 56.9 39.6 55.9 39.6 55.9 35.4 51.6 35.4 51.6 34.4 55.9 34.4 55.9 30.2"/>
        <rect class="st12" x="27.4" y="31.1" width="7.7" height="7.7"/>
        <rect class="st12" x="40" y="31.1" width="7.7" height="7.7"/>
        <polygon class="st4" points="30.7 30.2 31.8 30.2 31.8 34.4 36 34.4 36 35.4 31.8 35.4 31.8 39.6 30.7 39.6 30.7 35.4 26.5 35.4 26.5 34.4 30.7 34.4 30.7 30.2"/>
        <polygon class="st4" points="43.3 30.2 44.3 30.2 44.3 34.4 48.6 34.4 48.6 35.4 44.3 35.4 44.3 39.6 43.3 39.6 43.3 35.4 39.1 35.4 39.1 34.4 43.3 34.4 43.3 30.2"/>
        <rect class="st14" x="13.7" y="41.3" width="9.8" height="9.8"/>
        <rect class="st12" x="14.8" y="42.4" width="7.7" height="7.7"/>
        <polygon class="st4" points="18.1 41.5 19.2 41.5 19.2 45.7 23.4 45.7 23.4 46.8 19.2 46.8 19.2 51 18.1 51 18.1 46.8 13.9 46.8 13.9 45.7 18.1 45.7 18.1 41.5"/>
        <rect class="st14" x="51.5" y="41.3" width="9.8" height="9.8"/>
        <rect class="st12" x="52.5" y="42.4" width="7.7" height="7.7"/>
        <polygon class="st4" points="55.9 41.5 56.9 41.5 56.9 45.7 61.1 45.7 61.1 46.8 56.9 46.8 56.9 51 55.9 51 55.9 46.8 51.6 46.8 51.6 45.7 55.9 45.7 55.9 41.5"/>
        <rect class="st14" x="29.3" y="41.5" width="16.6" height="14"/>
        <path class="st2" d="M30.4,42.5h6.7v11.8h-6.7v-11.8ZM38.1,42.5h6.7v11.8h-6.7v-11.8Z"/>
        <path class="st8" d="M35.2,47.7c.4,0,.7.3.7.7s-.3.7-.7.7-.7-.3-.7-.7.3-.7.7-.7h0ZM40.1,47.7c.4,0,.7.3.7.7s-.3.7-.7.7-.7-.3-.7-.7.3-.7.7-.7h0Z"/>
        <rect class="st15" x="9.7" y="55.4" width="55.4" height="2.7"/>
      </g>
      <g>
        <g>
          <path class="st21" d="M51.9,34.1l-1-10c0-.2-.2-.4-.5-.4h0c-.3,0-.5.2-.5.5l.2,9c0,.3-.2.5-.4.5h0c-.2,0-.4-.2-.4-.4l-.5-8.9c0-.2-.2-.5-.5-.5-.3,0-.5.2-.5.5v8.9c0,.2-.2.4-.4.5-.3,0-.5-.2-.5-.4v-8.9c0-.2-.2-.4-.5-.4h0c-.3,0-.5.2-.5.5l-.5,8.9c0,.2-.2.4-.4.4h0c-.3,0-.5-.2-.4-.5l.2-9c0-.3-.2-.5-.5-.5h0c-.2,0-.4.2-.5.4l-1,10c-.2,2.3.9,4.6,2.8,5.8h0c.4.3.7.8.7,1.3l-1,20.5c0,1.2.9,2.2,2.1,2.2h0c1.2,0,2.1-1,2.1-2.2l-1-20.5c0-.5.2-1,.7-1.3h0c2-1.3,3.1-3.5,2.8-5.8Z"/>
          <path class="st1" d="M49.5,61.8c0,1.1-.9,2.1-2.1,2.1s-2.1-1-2.1-2.2l.2-3.7c2-1.4,3-3.3,3.5-5l.4,8.7s0,0,0,.1Z"/>
          <path class="st0" d="M46.6,40h0c-.2-.2-.4-.4-.6-.6-1.3-.8-2.2-2.1-2.4-3.6h0c1,.7,1.9,1.7,2.4,2.9l.6,1.3Z"/>
          <path class="st0" d="M46.4,52.7h0s.5-9.7.5-9.7l.5,2.7c.5,2.4,0,4.8-1,7Z"/>
        </g>
        <g>
          <path class="st13" d="M60.5,24.7c0-.9-1-1.4-1.7-.8-1.2.9-2.6,2.8-2.9,6.7-.3,4-.6,9.6-.7,12.4,0,1,.5,1.9,1.4,2.3l.8.3c.4.2.7.6.6,1l-1.6,14.9c-.1,1.2.8,2.3,2.1,2.3h0c1.1,0,2.1-.9,2.1-2.1V24.7Z"/>
          <path class="st0" d="M59.8,28.8c-1.1,1-2.4,2.1-3.3,3,0-.4,0-.7,0-1.1.3-3.7,1.6-5.5,2.7-6.2,0,0,.1,0,.2,0,.2,0,.4.1.4.4v4.1Z"/>
          <path class="st0" d="M59.8,34l-3.6,1.5c0-.8,0-1.5.1-2.3l3.4-2.4v3.1Z"/>
          <path class="st1" d="M60.5,61.8h0c0,1.1-.9,2.1-2.1,2.1s-2.2-1.1-2.1-2.3l.3-3.1c1.9-1,3.1-2.6,3.8-4.1v7.4Z"/>
          <path class="st0" d="M57.8,55.6h0s.9-8.8.9-8.8l.3,2.5c.3,2.2-.2,4.4-1.3,6.3Z"/>
        </g>
      </g>
      <g>
        <path class="st5" d="M44.9,62.2c.5,1.1-.1,2.5-1.3,2.9h0c-.7.3-1.5.2-2.1-.2-.1.7-.6,1.3-1.3,1.6h0c-.7.3-1.5.2-2.1-.2-.1.7-.6,1.3-1.3,1.6h0c-1.1.5-2.5-.1-2.9-1.3-2.8-7.1-5.6-14.2-8.5-21.3s-.3-4.5,1.1-6.2l-.8-2,4.9-2,.8,2c2.2.2,4.2,1.6,5,3.7,2.8,7.1,5.6,14.2,8.5,21.3h0Z"/>
        <path class="st6" d="M31.4,37.2c2.2.2,4.2,1.6,5,3.7l8,20.2-5.3,2.1c-.8.3-1.6,0-2-.8l-8.9-22.4c-.3-.8,0-1.6.8-2l2.2-.9Z"/>
        <path class="st3" d="M24.8,34.8l4.9-1.9c.6-.2,1.3,0,1.6.7l.5,1.3c.2.6,0,1.3-.7,1.6l-4.9,1.9c-.6.2-1.3,0-1.6-.7l-.5-1.3c-.2-.6,0-1.3.7-1.6h0Z"/>
        <rect class="st11" x="29.8" y="49.6" width="11.9" height="11" transform="translate(-17.8 17.1) rotate(-21.7)"/>
        <rect class="st18" x="30" y="50.9" width="4.7" height="11" transform="translate(-18.6 16) rotate(-21.7)"/>
        <path class="st7" d="M33.5,39.8c.5-.2,1.1,0,1.3.6s0,1.1-.6,1.3-1.1,0-1.3-.6,0-1.1.6-1.3h0ZM34.5,42.3h0c.3-.1.7,0,.9.4l1.7,4.3c.1.3,0,.7-.4.9h0c-.3.1-.7,0-.9-.4l-1.7-4.3c-.1-.3,0-.7.4-.9h0Z"/>
        <rect class="st19" x="28.6" y="51.2" width="11.9" height="1.8" transform="translate(-16.8 16.5) rotate(-21.7)"/>
        <rect class="st20" x="28.8" y="52.6" width="4.7" height="1.8" transform="translate(-17.6 15.3) rotate(-21.7)"/>
      </g>
      <rect class="st16" x=".5" y=".6" width="72" height="72"/>
    </g>
  </g>
</svg>