<?xml version="1.0" encoding="UTF-8"?>
<svg xmlns="http://www.w3.org/2000/svg" version="1.1" xmlns:xlink="http://www.w3.org/1999/xlink" viewBox="0 0 73 73">
  <!-- Generator: Adobe Illustrator 29.4.0, SVG Export Plug-In . SVG Version: 2.1.0 Build 152)  -->
  <defs>
    <style>
      .st0 {
        fill: #fdfdfd;
        mix-blend-mode: screen;
      }

      .st0, .st1 {
        opacity: .4;
      }

      .st2 {
        fill: url(#linear-gradient1);
      }

      .st3 {
        fill: none;
        stroke: #5cb0e2;
        stroke-miterlimit: 10;
      }

      .st1 {
        fill: #8485be;
        mix-blend-mode: multiply;
      }

      .st4 {
        isolation: isolate;
      }

      .st5 {
        fill: url(#linear-gradient);
      }
    </style>
    <linearGradient id="linear-gradient" x1="141.7" y1="-163.4" x2="148.9" y2="-134" gradientTransform="translate(-168.8 93.9) rotate(29.3)" gradientUnits="userSpaceOnUse">
      <stop offset="0" stop-color="#bbd1e6"/>
      <stop offset="1" stop-color="#b1c2de"/>
    </linearGradient>
    <linearGradient id="linear-gradient1" x1="154.8" y1="-162.2" x2="163.2" y2="-135.4" xlink:href="#linear-gradient"/>
  </defs>
  <g class="st4">
    <g id="Layer_1">
      <g>
        <g>
          <path class="st5" d="M41.4,25.5l5.4-12.2c.1-.3,0-.6-.3-.8h0c-.3-.2-.7,0-.9.2l-5.6,10.6c-.2.3-.5.4-.8.2h0c-.3-.2-.4-.5-.2-.8l5.2-10.7c.1-.3,0-.7-.2-.8-.3-.2-.7,0-.9.2l-5.8,10.3c-.1.3-.4.4-.7.3-.4-.1-.5-.5-.3-.9l5.8-10.4c.2-.3,0-.6-.2-.8h0c-.3-.2-.7,0-.9.2l-6.4,10c-.2.3-.5.4-.8.2h0c-.3-.2-.4-.5-.2-.8l6.1-10.3c.2-.3,0-.7-.2-.9h0c-.3-.2-.6,0-.8.2l-7.6,11c-1.8,2.6-2,5.9-.5,8.6h0c.3.6.3,1.4,0,2l-14.5,23.1c-.8,1.3-.4,3.1,1,3.9h0c1.4.8,3.1.2,3.9-1.2l12.1-24.4c.3-.6.9-1,1.6-1.1h0c3.1-.2,5.8-2.1,7.1-4.9Z"/>
          <path class="st1" d="M20.5,56.1c-.7,1.3-2.4,1.8-3.8,1.1s-1.8-2.6-1-3.9l2.6-4.1c3.2-.3,5.7-1.9,7.4-3.5l-5.1,10.3s0,0,0,.1Z"/>
          <path class="st0" d="M31.5,28.8h0c0-.4-.1-.7-.3-1.1-1-1.8-1.1-3.8-.5-5.7h0c.7,1.5,1.1,3.2,1,4.9v1.9Z"/>
          <path class="st0" d="M23,43.5h0s6.9-10.9,6.9-10.9l-1.2,3.5c-1,3-3,5.7-5.7,7.4Z"/>
        </g>
        <g>
          <path class="st2" d="M57.5,20.2c.6-1-.3-2.2-1.4-2.1-2,.3-4.9,1.5-7.8,5.9-2.9,4.4-6.9,10.8-8.8,13.9-.7,1.1-.6,2.6.2,3.6l.7.9c.4.5.4,1.1,0,1.6l-11.6,16.2c-1,1.3-.5,3.2.9,4h0c1.3.7,3,.3,3.8-1.1l24.1-43.1Z"/>
          <path class="st0" d="M54,24.5c-1.9.4-4.2.9-5.8,1.3.3-.4.6-.8.8-1.2,2.8-4.1,5.4-5.3,7.2-5.5.1,0,.2,0,.3,0,.2,0,.4.4.2.7l-2.7,4.8Z"/>
          <path class="st0" d="M50.7,30.5l-5.2-.5c.6-.9,1.1-1.7,1.7-2.6l5.5-.5-2,3.6Z"/>
          <path class="st1" d="M33.4,63.3h0c-.7,1.3-2.4,1.8-3.8,1.1s-1.9-2.7-.9-4l2.4-3.4c2.9,0,5.3-1,7.1-2.3l-4.8,8.6Z"/>
          <path class="st0" d="M34.3,54.2h0s6.8-9.6,6.8-9.6l-1.2,3.1c-1.1,2.7-3,5-5.6,6.5Z"/>
        </g>
      </g>
      <rect class="st3" x=".5" y=".5" width="72" height="72"/>
    </g>
  </g>
</svg>