<?xml version="1.0" encoding="UTF-8"?>
<svg id="Layer_1" xmlns="http://www.w3.org/2000/svg" version="1.1" viewBox="0 0 73 73">
  <!-- Generator: Adobe Illustrator 29.4.0, SVG Export Plug-In . SVG Version: 2.1.0 Build 152)  -->
  <defs>
    <style>
      .st0 {
        fill: #868d8f;
      }

      .st1 {
        fill: #1b7abc;
      }

      .st2 {
        fill: #bce1f0;
      }

      .st3 {
        fill: none;
        stroke: #5cb0e2;
        stroke-miterlimit: 10;
      }

      .st4 {
        fill: #5f7380;
      }

      .st5 {
        fill: #20a3e7;
      }

      .st6 {
        fill: #fefefe;
      }
    </style>
  </defs>
  <g>
    <path class="st5" d="M54.1,23.3c-1.2-.7-2.4-1.5-3.6-2.2-.7-.4-2.6-1.2-1.8-2.2.2-.3.5-.4.9-.5.4.1.7.4,1,.6l4.6,2.8c3.4,2.1,3.7,2.6,3.7,6.9-1.1,0-2.2,0-3.2,0-1.5-.1-2.7-1.2-2.8-2.8,0-1.1.5-1.8,1.2-2.6Z"/>
    <path class="st0" d="M44,59.1c.3,0,.6,0,.9,0h1.8v3.9H12.3v-2.4c0-.5,0-1,0-1.5.8,0,1.7,0,2.5,0,2.2,0,4.4,0,6.6,0h21.7c.3,0,.6,0,.9,0Z"/>
    <path class="st4" d="M44,23.9c1.5,0,2.8.3,4,1.3,1.8,1.6,1.6,3.4,1.6,5.5v18.7c0,.7,0,1.4,0,2.1.5,2.9,4.4,3.8,6.3,1.6,1.3-1.5,1-3.5,1-5.3v-10.2c0-.4,0-.8,0-1.2-1.7,0-2.1-.3-2.1-2v-3c0-1-.3-2.2.8-2.6,1.1,0,2.2,0,3.2,0,.9,0,1.7.3,1.7,1.3,0,1.1,0,2.1,0,3.2,0,2,.4,3.1-2,3.2v12.9c0,2.2,0,3.6-1.6,5.3-2,2.1-5.5,2.2-7.5.1-1.7-1.7-1.6-3.2-1.6-5.3v-19.7c0-2.7-1.1-4-3.9-3.9,0-.6,0-1.2,0-1.8Z"/>
    <path class="st6" d="M56.6,30.4h2.3v4.3h-2.3v-4.3Z"/>
    <path class="st1" d="M14.9,15.3c0-2.7,0-5.3,3.5-5.4h20.5c1.6,0,3-.2,4.2,1,1.2,1.2.9,2.6.9,4.1,0,0,0,.1,0,.2-.8,0-1.7,0-2.5,0h-24.7c-.6,0-1.5,0-2,0Z"/>
    <path class="st5" d="M14.9,15.3c.5,0,1.4,0,2,0h24.7c.8,0,1.7,0,2.5,0,0,0,0-.1,0-.2.1.8,0,2.5,0,3.4v3.7c0,.6,0,1.2,0,1.8,0,.6,0,1.2,0,1.8v33.4c-.3,0-.6,0-.9,0h-21.7c-2.2,0-4.4,0-6.6,0V15.3ZM21.1,35.9c-1.7.4-1.1,3.3-1.1,4.8v9.8c0,3.5.3,3,3.3,3h10.9c.7,0,2.9,0,3.5,0,1.6-.7,1.1-2.6,1.1-4.2v-9.4c0-1,.4-3.4-.9-3.8-.4-.1-2.9,0-3.5,0h-12c-.5,0-1,0-1.4,0Z"/>
    <path class="st4" d="M21.9,17.7c1.1,0,2.2,0,3.3,0h10.7c2.9,0,3.8,0,3.8,3.2v9.3c0,1.7-.7,2.9-2.5,2.9h-14c-2,0-3.8.1-3.8-2.5v-10c0-2,.4-3,2.5-3Z"/>
    <path class="st2" d="M21.1,19.4c2,0,3.9,0,5.9,0h11s0,9.9,0,9.9c0,.5.1,1.4-.1,1.9-.5.3-3.2.1-3.9.1h-10.4c-2.8,0-2.4.5-2.4-2.4v-7.3c0-.7,0-1.5,0-2.2Z"/>
  </g>
  <rect class="st3" x=".5" y=".5" width="72" height="72"/>
</svg>