<?xml version="1.0" encoding="UTF-8"?>
<svg id="Layer_1" xmlns="http://www.w3.org/2000/svg" version="1.1" viewBox="0 0 73 73">
  <!-- Generator: Adobe Illustrator 29.4.0, SVG Export Plug-In . SVG Version: 2.1.0 Build 152)  -->
  <defs>
    <style>
      .st0 {
        fill: #fdc542;
      }

      .st1 {
        fill: #fcb503;
      }

      .st2 {
        fill: none;
        stroke: #5cb0e2;
        stroke-miterlimit: 10;
      }

      .st3 {
        fill: #5d5766;
      }

      .st4 {
        fill: #453f4f;
      }

      .st5 {
        fill: #7d7985;
      }

      .st6 {
        fill: #342f3b;
      }
    </style>
  </defs>
  <g>
    <g>
      <rect class="st4" x="16.3" y="9.3" width="40.6" height="56.6"/>
      <g>
        <polygon class="st4" points="23.2 20.1 19.8 20.1 16.3 15.2 16.3 14.1 19 14.1 23.2 20.1"/>
        <polygon class="st4" points="16.3 15.2 19.8 20.1 16.3 20.1 16.3 15.2"/>
        <polygon class="st4" points="30.3 20.1 26.8 20.1 22.5 14.1 26 14.1 30.3 20.1"/>
        <polygon class="st4" points="22.5 14.1 26.8 20.1 23.2 20.1 19 14.1 22.5 14.1"/>
        <polygon class="st4" points="37.4 20.1 33.9 20.1 29.6 14.1 33.1 14.1 37.4 20.1"/>
        <polygon class="st4" points="29.6 14.1 33.9 20.1 30.3 20.1 26 14.1 29.6 14.1"/>
        <polygon class="st4" points="44.4 20.1 40.9 20.1 36.7 14.1 40.1 14.1 44.4 20.1"/>
        <polygon class="st4" points="36.7 14.1 40.9 20.1 37.4 20.1 33.1 14.1 36.7 14.1"/>
        <polygon class="st4" points="51.4 20.1 48 20.1 43.7 14.1 47.2 14.1 51.4 20.1"/>
        <polygon class="st4" points="43.7 14.1 48 20.1 44.4 20.1 40.1 14.1 43.7 14.1"/>
        <polygon class="st4" points="56.9 17.8 56.9 20.1 55 20.1 50.7 14.1 54.2 14.1 56.9 17.8"/>
        <polygon class="st4" points="50.7 14.1 55 20.1 51.4 20.1 47.2 14.1 50.7 14.1"/>
        <polygon class="st4" points="56.9 14.1 56.9 17.8 54.2 14.1 56.9 14.1"/>
        <polygon class="st1" points="19.8 20.1 16.3 20.1 16.3 15.2 19.8 20.1"/>
        <polygon class="st1" points="26.8 20.1 23.2 20.1 19 14.1 22.5 14.1 26.8 20.1"/>
        <polygon class="st1" points="33.9 20.1 30.3 20.1 26 14.1 29.6 14.1 33.9 20.1"/>
        <polygon class="st1" points="40.9 20.1 37.4 20.1 33.1 14.1 36.7 14.1 40.9 20.1"/>
        <polygon class="st1" points="48 20.1 44.4 20.1 40.1 14.1 43.7 14.1 48 20.1"/>
        <polygon class="st1" points="55 20.1 51.4 20.1 47.2 14.1 50.7 14.1 55 20.1"/>
        <polygon class="st1" points="56.9 14.1 56.9 17.8 54.2 14.1 56.9 14.1"/>
      </g>
      <g>
        <polygon class="st4" points="23.2 61.3 19.8 61.3 16.3 56.4 16.3 55.2 19 55.2 23.2 61.3"/>
        <polygon class="st4" points="16.3 56.4 19.8 61.3 16.3 61.3 16.3 56.4"/>
        <polygon class="st4" points="30.3 61.3 26.8 61.3 22.5 55.2 26 55.2 30.3 61.3"/>
        <polygon class="st4" points="22.5 55.2 26.8 61.3 23.2 61.3 19 55.2 22.5 55.2"/>
        <polygon class="st4" points="37.4 61.3 33.9 61.3 29.6 55.2 33.1 55.2 37.4 61.3"/>
        <polygon class="st4" points="29.6 55.2 33.9 61.3 30.3 61.3 26 55.2 29.6 55.2"/>
        <polygon class="st4" points="44.4 61.3 40.9 61.3 36.7 55.2 40.1 55.2 44.4 61.3"/>
        <polygon class="st4" points="36.7 55.2 40.9 61.3 37.4 61.3 33.1 55.2 36.7 55.2"/>
        <polygon class="st4" points="51.4 61.3 48 61.3 43.7 55.2 47.2 55.2 51.4 61.3"/>
        <polygon class="st4" points="43.7 55.2 48 61.3 44.4 61.3 40.1 55.2 43.7 55.2"/>
        <polygon class="st4" points="56.9 59 56.9 61.3 55 61.3 50.7 55.2 54.2 55.2 56.9 59"/>
        <polygon class="st4" points="50.7 55.2 55 61.3 51.4 61.3 47.2 55.2 50.7 55.2"/>
        <polygon class="st4" points="56.9 55.2 56.9 59 54.2 55.2 56.9 55.2"/>
        <polygon class="st1" points="19.8 61.3 16.3 61.3 16.3 56.4 19.8 61.3"/>
        <polygon class="st1" points="26.8 61.3 23.2 61.3 19 55.2 22.5 55.2 26.8 61.3"/>
        <polygon class="st1" points="33.9 61.3 30.3 61.3 26 55.2 29.6 55.2 33.9 61.3"/>
        <polygon class="st1" points="40.9 61.3 37.4 61.3 33.1 55.2 36.7 55.2 40.9 61.3"/>
        <polygon class="st1" points="48 61.3 44.4 61.3 40.1 55.2 43.7 55.2 48 61.3"/>
        <polygon class="st1" points="55 61.3 51.4 61.3 47.2 55.2 50.7 55.2 55 61.3"/>
        <polygon class="st1" points="56.9 55.2 56.9 59 54.2 55.2 56.9 55.2"/>
      </g>
      <g>
        <rect class="st6" x="16.3" y="11.6" width="40.6" height="1.1"/>
        <path class="st3" d="M57.9,10.3c0,.2,0,.3,0,.4,0,0,0,0,0,.1-.2.4-.6.7-1.2.7H16.4c-.5,0-1-.3-1.2-.7,0,0,0,0,0-.1,0-.1,0-.3,0-.4,0-.7.6-1.3,1.3-1.3h40.3c.7,0,1.3.6,1.3,1.3Z"/>
        <path class="st4" d="M57.8,10.9c-.2.4-.6.7-1.2.7H16.4c-.5,0-1-.3-1.2-.7.2-.4.7-.7,1.2-.7h40.3c.5,0,.9.3,1.2.7Z"/>
        <g>
          <rect class="st5" x="33" y="9.3" width="22.4" height=".6" rx=".3" ry=".3"/>
          <path class="st5" d="M56.1,9.6c0,.2-.1.3-.3.3s-.3-.1-.3-.3.1-.3.3-.3.3.1.3.3Z"/>
        </g>
      </g>
      <g>
        <g>
          <rect class="st6" x="16.3" y="24" width="40.6" height="1.1"/>
          <path class="st3" d="M57.9,22.7c0,.2,0,.3,0,.4,0,0,0,0,0,.1-.2.4-.6.7-1.2.7H16.4c-.5,0-1-.3-1.2-.7,0,0,0,0,0-.1,0-.1,0-.3,0-.4,0-.7.6-1.3,1.3-1.3h40.3c.7,0,1.3.6,1.3,1.3Z"/>
          <path class="st4" d="M57.8,23.3c-.2.4-.6.7-1.2.7H16.4c-.5,0-1-.3-1.2-.7.2-.4.7-.7,1.2-.7h40.3c.5,0,.9.3,1.2.7Z"/>
          <g>
            <path class="st5" d="M55.1,22.3h-21.8c-.2,0-.3-.1-.3-.3h0c0-.2.1-.3.3-.3h21.8c.2,0,.3.1.3.3h0c0,.2-.1.3-.3.3Z"/>
            <circle class="st5" cx="55.9" cy="22" r=".3"/>
          </g>
        </g>
        <g>
          <rect class="st6" x="16.3" y="52.6" width="40.6" height="1.1"/>
          <path class="st3" d="M57.9,51.3c0,.2,0,.3,0,.4,0,0,0,0,0,.1-.2.4-.6.7-1.2.7H16.4c-.5,0-1-.3-1.2-.7,0,0,0,0,0-.1,0-.1,0-.3,0-.4,0-.7.6-1.3,1.3-1.3h40.3c.7,0,1.3.6,1.3,1.3Z"/>
          <path class="st4" d="M57.8,51.8c-.2.4-.6.7-1.2.7H16.4c-.5,0-1-.3-1.2-.7.2-.4.7-.7,1.2-.7h40.3c.5,0,.9.3,1.2.7Z"/>
          <g>
            <path class="st5" d="M55.1,50.8h-21.8c-.2,0-.3-.1-.3-.3h0c0-.2.1-.3.3-.3h21.8c.2,0,.3.1.3.3h0c0,.2-.1.3-.3.3Z"/>
            <circle class="st5" cx="55.9" cy="50.5" r=".3"/>
          </g>
        </g>
      </g>
      <g>
        <path class="st3" d="M57.9,64.6c0,.2,0,.3,0,.4,0,0,0,0,0,.1-.2.4-.6.7-1.2.7H16.4c-.5,0-1-.3-1.2-.7,0,0,0,0,0-.1,0-.1,0-.3,0-.4,0-.7.6-1.3,1.3-1.3h40.3c.7,0,1.3.6,1.3,1.3Z"/>
        <path class="st4" d="M57.8,65.2c-.2.4-.6.7-1.2.7H16.4c-.5,0-1-.3-1.2-.7.2-.4.7-.7,1.2-.7h40.3c.5,0,.9.3,1.2.7Z"/>
        <g>
          <path class="st5" d="M55.1,64.2h-21.8c-.2,0-.3-.1-.3-.3h0c0-.2.1-.3.3-.3h21.8c.2,0,.3.1.3.3h0c0,.2-.1.3-.3.3Z"/>
          <circle class="st5" cx="55.9" cy="63.9" r=".3"/>
        </g>
      </g>
      <path class="st4" d="M25.6,7.1c-2.2,0-3.9.1-3.9.3v1.7h7.8v-1.7c0-.2-1.7-.3-3.9-.3Z"/>
    </g>
    <g>
      <path class="st0" d="M36.5,47.8h-10.4c-.7,0-1.1-.8-.8-1.4l5.2-9.3,5.2-9.3c.3-.6,1.2-.6,1.5,0l5.2,9.3,5.2,9.3c.3.6,0,1.4-.8,1.4h-10.4Z"/>
      <path class="st4" d="M45.5,46.9h-17.9c-.3,0-.6-.2-.8-.5-.2-.3-.2-.6,0-.9l9-16.1c.3-.6,1.3-.6,1.7,0l9,16.1c.2.3.2.6,0,.9-.2.3-.5.5-.8.5ZM36.5,29.6c0,0-.2,0-.3.2l-9,16.1c0,.1,0,.3,0,.3,0,0,.1.2.3.2h17.9c.2,0,.2-.1.3-.2,0,0,0-.2,0-.3l-9-16.1c0-.1-.2-.2-.3-.2Z"/>
      <g>
        <path class="st4" d="M36.5,42.4h0c-.4,0-.8-.3-.8-.8l-.6-5.3c-.1-1.2.6-2,1.4-2h0c.8,0,1.5.7,1.4,1.9l-.6,5.4c0,.5-.4.8-.8.8Z"/>
        <ellipse class="st4" cx="36.5" cy="44.3" rx="1" ry="1.2"/>
      </g>
    </g>
  </g>
  <rect class="st2" x=".5" y=".5" width="72" height="72"/>
</svg>