<?xml version="1.0" encoding="UTF-8"?>
<svg id="Layer_1" xmlns="http://www.w3.org/2000/svg" version="1.1" viewBox="0 0 73 73">
  <!-- Generator: Adobe Illustrator 29.4.0, SVG Export Plug-In . SVG Version: 2.1.0 Build 152)  -->
  <defs>
    <style>
      .st0 {
        fill: #df6026;
      }

      .st0, .st1, .st2, .st3, .st4, .st5, .st6 {
        fill-rule: evenodd;
      }

      .st1 {
        fill: #f6a31d;
      }

      .st2 {
        fill: #ffc612;
      }

      .st7 {
        fill: none;
        stroke: #5cb0e2;
        stroke-miterlimit: 10;
      }

      .st3 {
        fill: #efe7c4;
      }

      .st4 {
        fill: #75bfca;
      }

      .st5 {
        fill: #695d6b;
      }

      .st6 {
        fill: #89d3dd;
      }
    </style>
  </defs>
  <g>
    <path class="st2" d="M26.8,35.7h19.5c7.5,0,13.6,6.1,13.6,13.6v14H13.2v-14c0-7.5,6.1-13.6,13.6-13.6h0Z"/>
    <path class="st1" d="M26.8,35.7h19.5c.6,0,1.1,0,1.7.1-1.3,3.2-6,10.6-23.8,10.6l-3-9.6c1.7-.7,3.5-1.1,5.5-1.1h0Z"/>
    <path class="st0" d="M50.6,36.5c.8.3,1.6.7,2.4,1.1-1.5,3.4-3.2,10.6-3,25.8h-2.9c-.2-14.8,1.7-22.7,3.5-26.8h0ZM25.9,63.3h-2.9c.2-15.2-1.5-22.4-3-25.8.7-.4,1.6-.8,2.4-1.1,1.8,4.2,3.7,12,3.5,26.8h0Z"/>
    <path class="st2" d="M36.5,9.7c7.4,0,13.5,7.1,13.5,15.9s-6,15.9-13.5,15.9-13.5-7.1-13.5-15.9,6-15.9,13.5-15.9h0Z"/>
    <path class="st5" d="M36.5,17.1c5.3,0,9.5,5.1,9.5,11.3s-4.3,11.3-9.5,11.3-9.5-5.1-9.5-11.3,4.3-11.3,9.5-11.3h0Z"/>
    <path class="st4" d="M36.5,17.1c4.5,0,8.3,3.7,9.3,8.7-2.5,1.4-3.5,2.2-5,1.9-1-.2-1.9-1.3-4.3-1.3s-3.3,1.1-4.3,1.3c-1.5.3-2.5-.5-5-1.9,1-5,4.8-8.7,9.3-8.7h0Z"/>
    <path class="st6" d="M36.5,17.1c.6,0,1.1,0,1.6.2l-5.5,10.3c-.2,0-.3.1-.5.2-1.1.2-2-.2-3.4-1l4.9-9.1c.9-.3,1.8-.5,2.8-.5h0ZM39.8,17.8c1.1.5,2,1.1,2.9,2l-3.8,7.1c-.6-.2-1.4-.4-2.4-.4s-1,0-1.4.1l4.7-8.8Z"/>
    <path class="st0" d="M36.5,28.2c3,0,5.5,4.3,5.5,7.7,0,6-11,6-11,0s2.5-7.7,5.5-7.7h0Z"/>
    <path class="st3" d="M36.5,32.4c1.6,0,2.8,1.3,2.8,2.8s-1.2,2.8-2.8,2.8-2.8-1.3-2.8-2.8,1.3-2.8,2.8-2.8h0Z"/>
  </g>
  <rect class="st7" x=".5" y=".5" width="72" height="72"/>
</svg>