<?xml version="1.0" encoding="UTF-8"?>
<svg id="Layer_1" xmlns="http://www.w3.org/2000/svg" version="1.1" viewBox="0 0 73 73">
  <!-- Generator: Adobe Illustrator 29.4.0, SVG Export Plug-In . SVG Version: 2.1.0 Build 152)  -->
  <defs>
    <style>
      .st0 {
        fill: #ad444e;
      }

      .st1 {
        fill: #fff;
      }

      .st2 {
        fill: none;
        stroke: #5cb0e2;
        stroke-miterlimit: 10;
      }

      .st3 {
        fill: #e2444c;
      }
    </style>
  </defs>
  <g>
    <path class="st3" d="M60.8,38.6c-5.2,9.2-14.8,16.6-24.3,21.8-9.5-5.2-19.1-12.7-24.3-21.8-2.6-4.6-4.8-9.9-3.7-15.1,1.2-5.5,6.2-9.8,11.7-10.6,5.5-.9,11.4,1.4,15.3,5.4.4.4.7.8,1,1.2.3-.4.7-.8,1-1.2,3.9-4.1,9.7-6.3,15.3-5.4,5.5.9,10.5,5.2,11.7,10.6,1.1,5.2-1.1,10.5-3.7,15.1Z"/>
    <path class="st0" d="M60.8,38.6c-5.2,9.2-14.8,16.6-24.3,21.8V19.5c.3-.4.7-.8,1-1.2,3.9-4.1,9.7-6.3,15.3-5.4,5.5.9,10.5,5.2,11.7,10.6,1.1,5.2-1.1,10.5-3.7,15.1Z"/>
    <polygon class="st1" points="46.6 33.8 46.6 40.8 40 40.8 40 47.4 33 47.4 33 40.8 26.4 40.8 26.4 33.8 33 33.8 33 27.1 40 27.1 40 33.8 46.6 33.8"/>
  </g>
  <rect class="st2" x=".5" y=".5" width="72" height="72"/>
</svg>