<?xml version="1.0" encoding="UTF-8"?>
<svg id="Layer_1" xmlns="http://www.w3.org/2000/svg" version="1.1" viewBox="0 0 73 73">
  <!-- Generator: Adobe Illustrator 29.4.0, SVG Export Plug-In . SVG Version: 2.1.0 Build 152)  -->
  <defs>
    <style>
      .st0 {
        fill: #fff;
      }

      .st1, .st2 {
        fill: none;
      }

      .st2 {
        stroke: #5cb0e2;
        stroke-miterlimit: 10;
      }

      .st3 {
        fill: #333;
      }

      .st4 {
        fill: #ffc200;
      }
    </style>
  </defs>
  <g>
    <path class="st3" d="M57.6,36.7v-.3c-.1,0-1.8-4.5-1.8-4.5h0c0-.1-.2-.7-.2-.7l-1.5-3.9v-.2c0,0-1.4-3.6-1.4-3.6v-.2c0,0-1.6-4-1.6-4l-.8-2.2-.9-2.5h-2.1l.8,2.5.7,2.2,1.3,4v.2c0,0,1.2,3.6,1.2,3.6v.2c0,0,1.3,3.9,1.3,3.9l.2.6h0c0,.1,1.4,4.6,1.4,4.6l.2.6,2.2,6.8,1.2,4,3.4,10.7h4.8l-8.2-21.7ZM23.8,14.6l-.9,2.5-.8,2.2-1.5,4v.2c0,0-1.4,3.6-1.4,3.6v.2c0,0-1.6,3.9-1.6,3.9l-.2.6h0c0,.1-1.7,4.6-1.7,4.6v.3c-.1,0-8.3,21.7-8.3,21.7h4.8l3.4-10.7,1.2-4,2.2-6.8.2-.6,1.4-4.5h0c0-.1.2-.7.2-.7l1.2-3.9v-.2c0,0,1.2-3.6,1.2-3.6v-.2c0,0,1.3-4,1.3-4l.7-2.2.8-2.5h-2.1Z"/>
    <path class="st3" d="M54.3,49.2l-1.4-5.4-1.8-6.8v-.6c-.1,0-1.3-4.5-1.3-4.5h0c0-.1-.1-.7-.1-.7l-1-3.9v-.2c0,0-1-3.6-1-3.6v-.2c0,0-1.1-4-1.1-4l-.6-2.2-.7-2.5h-7.4v2.5c.1,0-2.9,0-2.9,0v-2.5c.1,0-7.3,0-7.3,0l-.7,2.5-.6,2.2-1.1,4v.2c0,0-1,3.6-1,3.6v.2c0,0-1.1,3.9-1.1,3.9v.6c-.1,0-.2.1-.2.1l-1.2,4.5v.6c-.1,0-1.9,6.8-1.9,6.8l-1.4,5.4-2.4,9.3h17l.4-9.3h5.8l.4,9.3h17l-2.4-9.3ZM34.7,23.3l.2-4h3.2l.2,4v.2s-3.6,0-3.6,0v-.2ZM34.4,31.8v-.6s.2-3.9.2-3.9h3.9l.2,3.9v.6s0,.1,0,.1h-4.3,0ZM33.8,43.7l.3-6.8h4.7l.3,6.8h-5.3Z"/>
    <polygon class="st4" points="39.8 58.4 33.2 58.4 33.6 49.2 39.4 49.2 39.8 58.4"/>
    <line class="st1" x1="33.2" y1="58.4" x2="16.2" y2="58.4"/>
    <line class="st1" x1="65.8" y1="58.4" x2="61" y2="58.4"/>
    <line class="st1" x1="56.8" y1="58.4" x2="39.8" y2="58.4"/>
    <line class="st1" x1="12" y1="58.4" x2="7.2" y2="58.4"/>
    <polygon class="st0" points="27.7 14.6 27.1 17.1 26.5 19.3 25.4 23.3 25.4 23.6 24.4 27.1 24.4 27.3 23.4 31.2 23.2 31.8 23.2 31.9 22 36.4 21.9 36.9 20.1 43.7 18.7 49.2 16.2 58.4 12 58.4 15.4 47.7 16.7 43.7 18.8 36.9 19 36.4 20.4 31.9 20.5 31.8 20.7 31.2 21.9 27.3 21.9 27.1 23.1 23.6 23.1 23.3 24.4 19.3 25.1 17.1 25.9 14.6 27.7 14.6"/>
    <polygon class="st0" points="61 58.4 56.8 58.4 54.3 49.2 52.9 43.7 51.1 36.9 51 36.4 49.8 31.9 49.8 31.8 49.6 31.2 48.6 27.3 48.6 27.1 47.6 23.6 47.6 23.3 46.5 19.3 45.9 17.1 45.3 14.6 47.1 14.6 47.9 17.1 48.6 19.3 49.9 23.3 49.9 23.6 51.1 27.1 51.1 27.3 52.4 31.2 52.5 31.8 52.6 31.9 54 36.4 54.2 36.9 56.3 43.7 57.6 47.7 61 58.4"/>
    <polygon class="st4" points="39.2 43.7 33.8 43.7 34.1 36.9 38.9 36.9 39.2 43.7"/>
    <polygon class="st4" points="38.7 31.9 34.3 31.9 34.4 31.8 34.4 31.2 34.5 27.3 38.5 27.3 38.6 31.2 38.7 31.8 38.7 31.9"/>
    <polygon class="st4" points="38.3 23.6 34.7 23.6 34.7 23.3 34.9 19.3 38.1 19.3 38.3 23.3 38.3 23.6"/>
    <polygon class="st4" points="38 17.1 35 17.1 35.1 14.6 37.9 14.6 38 17.1"/>
    <line class="st1" x1="35.1" y1="14.6" x2="27.7" y2="14.6"/>
    <line class="st1" x1="45.3" y1="14.6" x2="37.9" y2="14.6"/>
    <line class="st1" x1="49.2" y1="14.6" x2="47.1" y2="14.6"/>
    <line class="st1" x1="25.9" y1="14.6" x2="23.8" y2="14.6"/>
  </g>
  <rect class="st2" x=".5" y=".5" width="72" height="72"/>
</svg>