<?xml version="1.0" encoding="UTF-8"?>
<svg id="Layer_1" xmlns="http://www.w3.org/2000/svg" version="1.1" viewBox="0 0 73 73">
  <!-- Generator: Adobe Illustrator 29.4.0, SVG Export Plug-In . SVG Version: 2.1.0 Build 152)  -->
  <defs>
    <style>
      .st0 {
        fill: #575f72;
      }

      .st0, .st1, .st2, .st3 {
        fill-rule: evenodd;
      }

      .st4, .st1 {
        fill: #353d50;
      }

      .st5, .st3 {
        fill: #464e61;
      }

      .st6 {
        fill: none;
        stroke: #5cb0e2;
        stroke-miterlimit: 10;
      }

      .st2 {
        fill: #88babf;
      }
    </style>
  </defs>
  <path class="st3" d="M41.4,33.9l3.2,3,5.1-5.5c.5-.5.4-1.3,0-1.8l-1.4-1.2c-.5-.5-1.3-.4-1.8,0l-5.1,5.5Z"/>
  <path class="st0" d="M27.4,41.6l9.8,9c1.9,1.8,2.1,4.9.3,6.8l-3.6,4-16.9-15.5,3.6-4c1.8-2,4.9-2.1,6.8-.3h0Z"/>
  <path class="st3" d="M27.4,41.6l3.1,2.8c-.7-.7-2.8.4-4.6,2.3l-3.6,4-5.3-4.9,3.6-4c1.8-2,4.9-2.1,6.8-.3h0Z"/>
  <path class="st0" d="M16.8,45.7l17.2,15.8c.2.2.4.1.6,0l1.7-1.8c.1-.2.1-.4,0-.6l-17.2-15.8c-.2-.1-.4-.1-.6,0l-1.7,1.8c-.1.2-.1.4,0,.6h0Z"/>
  <path class="st3" d="M16.8,45.7l5.4,5,2.2-2.4-5.4-5c-.2-.1-.4-.1-.6,0l-1.7,1.8c-.1.2-.1.4,0,.6h0Z"/>
  <rect class="st5" x="27.4" y="39.4" width=".8" height="22.9" transform="translate(-28.4 36.9) rotate(-47.4)"/>
  <rect class="st5" x="23.4" y="53.8" width="2.3" height="1.3" transform="translate(-32.1 35.6) rotate(-47.4)"/>
  <path class="st0" d="M24,55.1c.5.5.6,1.3,0,1.9s-1.3.6-1.9,0-.6-1.3,0-1.9,1.3-.6,1.9,0h0Z"/>
  <path class="st0" d="M28.2,42.4l8.1,7.5,12.8-13.8c1.2-1.3,1.1-3.3-.2-4.5l-3.4-3.1c-1.3-1.2-3.3-1.1-4.5.2l-12.8,13.8Z"/>
  <path class="st3" d="M28.2,42.4l2.2,2.1c4.3-4.6,8.5-9.2,12.8-13.8,1.2-1.3,2.6-1.9,3.2-1.4l-.9-.9c-1.3-1.2-3.3-1.1-4.5.2l-12.8,13.8Z"/>
  <rect class="st4" x="21.7" y="42" width=".8" height="7.2" transform="translate(-26.4 30.9) rotate(-47.4)"/>
  <rect class="st5" x="32.1" y="40.2" width="1.2" height="11" transform="translate(-23.1 38.8) rotate(-47.4)"/>
  <rect class="st4" x="29.1" y="41.5" width="1.2" height="3" transform="translate(-22 35.7) rotate(-47.4)"/>
  <rect class="st5" x="43.3" y="28" width="1.2" height="11" transform="translate(-10.5 43.1) rotate(-47.4)"/>
  <rect class="st4" x="40.4" y="29.3" width="1.2" height="3" transform="translate(-9.5 40) rotate(-47.4)"/>
  <path class="st3" d="M42,38c1.1,1,1.2,2.8.2,4s-2.8,1.2-4,.2-1.2-2.8-.2-4,2.8-1.2,4-.2h0Z"/>
  <path class="st1" d="M41.6,38.5c.9.8.9,2.2.1,3s-2.1.9-3,.1-.9-2.1-.1-3,2.1-.9,3-.1h0Z"/>
  <path class="st3" d="M37,9l9.1,8.3c.3.3.3.8,0,1.1l-17.7,19.2c-.3.3-.8.3-1.1,0l-9.1-8.3c-.3-.3-.3-.8,0-1.1l17.7-19.2c.3-.3.8-.3,1.1,0h0Z"/>
  <path class="st2" d="M36.5,10l2.4,2.2-3.8,4.2-2.4-2.2,3.8-4.2ZM39.6,12.8l2.4,2.2-3.8,4.2-2.4-2.2,3.8-4.2ZM42.7,15.7l2.4,2.2-3.8,4.2-2.4-2.2,3.8-4.2ZM40.7,22.7l-3.9,4.2-2.4-2.2,3.9-4.2,2.4,2.2ZM36.2,27.6l-3.9,4.2-2.4-2.2,3.9-4.2,2.4,2.2ZM31.7,32.5l-3.8,4.2-2.4-2.2,3.8-4.2,2.4,2.2ZM24.8,33.8l-2.4-2.2,3.8-4.2,2.4,2.2-3.8,4.2ZM21.7,31l-2.4-2.2,3.8-4.2,2.4,2.2-3.8,4.2ZM23.7,23.9l3.9-4.2,2.4,2.2-3.9,4.2-2.4-2.2ZM28.2,19l3.9-4.2,2.4,2.2-3.9,4.2-2.4-2.2ZM35.2,17.7l-3.9,4.2,2.4,2.2,3.9-4.2-2.4-2.2ZM30.7,22.5l-3.9,4.2,2.4,2.2,3.9-4.2-2.4-2.2Z"/>
  <rect class="st5" x="34.2" y="30.5" width="3" height="3" transform="translate(-12 36.6) rotate(-47.4)"/>
  <rect class="st4" x="35" y="32.1" width="3" height="1.1" transform="translate(-12.3 37.3) rotate(-47.4)"/>
  <path class="st3" d="M68.9,38.3l-9.1-8.3c-.3-.3-.8-.3-1.1,0l-17.7,19.2c-.3.3-.2.8,0,1.1l9.1,8.3c.3.3.8.3,1.1,0l17.7-19.2c.3-.3.2-.8,0-1.1h0Z"/>
  <path class="st2" d="M67.9,38.9l-2.4-2.2-3.8,4.2,2.4,2.2,3.8-4.2ZM64.8,36l-2.4-2.2-3.8,4.2,2.4,2.2,3.8-4.2ZM61.7,33.2l-2.4-2.2-3.8,4.2,2.4,2.2,3.8-4.2ZM54.9,35.8l-3.9,4.2,2.4,2.2,3.9-4.2-2.4-2.2ZM50.4,40.7l-3.9,4.2,2.4,2.2,3.9-4.2-2.4-2.2ZM45.9,45.5l-3.8,4.2,2.4,2.2,3.8-4.2-2.4-2.2ZM45.2,52.5l2.4,2.2,3.8-4.2-2.4-2.2-3.8,4.2ZM48.2,55.4l2.4,2.2,3.8-4.2-2.4-2.2-3.8,4.2ZM55.1,52.8l3.9-4.2-2.4-2.2-3.9,4.2,2.4,2.2ZM59.6,47.9l3.9-4.2-2.4-2.2-3.9,4.2,2.4,2.2ZM60.4,40.9l-3.9,4.2-2.4-2.2,3.9-4.2,2.4,2.2ZM55.9,45.7l-3.9,4.2-2.4-2.2,3.9-4.2,2.4,2.2Z"/>
  <rect class="st5" x="44.6" y="40" width="3" height="3" transform="translate(-15.7 47.3) rotate(-47.4)"/>
  <rect class="st4" x="43.9" y="40.3" width="3" height="1.1" transform="translate(-15.4 46.5) rotate(-47.4)"/>
  <rect class="st6" x=".5" y=".5" width="72" height="72"/>
</svg>