<?xml version="1.0" encoding="UTF-8"?>
<svg id="Layer_1" xmlns="http://www.w3.org/2000/svg" version="1.1" viewBox="0 0 73 73">
  <!-- Generator: Adobe Illustrator 29.4.0, SVG Export Plug-In . SVG Version: 2.1.0 Build 152)  -->
  <defs>
    <style>
      .st0 {
        fill: #f7a000;
      }

      .st0, .st1, .st2 {
        fill-rule: evenodd;
      }

      .st3 {
        fill: none;
        stroke: #5cb0e2;
        stroke-miterlimit: 10;
      }

      .st1 {
        fill: #fcc900;
      }

      .st2 {
        fill: #feed8a;
      }
    </style>
  </defs>
  <g>
    <path class="st1" d="M36.5,5c-5.6,3.6-11.5,4.6-18.1,0-2.8,2.2-5.5,4.4-8.3,6.6,10.1,15.7,0,25.7,0,38.5.8,9.6,10.5,15.1,26.4,17.9V5h0Z"/>
    <path class="st0" d="M36.5,5c5.6,3.6,11.5,4.6,18.1,0,2.8,2.2,5.5,4.4,8.3,6.6-10.1,15.7,0,25.7,0,38.5-.8,9.6-10.5,15.1-26.4,17.9V5h0Z"/>
    <path class="st2" d="M15.7,49.2c.9,8.6,13.8,11.7,20.8,13,7.1-1.3,19.9-4.3,20.8-13,0-3.5-1-6.9-2-10.2-1.2-4.2-2.3-8.2-2.3-12.6s1.1-8.4,3-12.3c-1-.8-1.9-1.5-2.9-2.3-5.5,2.9-11.2,2.6-16.8-.2-5.5,2.9-11.2,3.1-16.8.2-1,.8-1.9,1.5-2.9,2.3,1.9,3.9,3,7.9,3,12.3s-1.1,8.4-2.3,12.6c-.9,3.3-1.9,6.7-1.9,10.2h0ZM36.5,10c-5.6,3.1-11.3,3.3-16.9.2-1.5,1.2-3,2.3-4.5,3.5,2.2,3.9,3.4,8.1,3.4,12.7s-1.1,8.2-2.2,12.3c-1,3.5-2,7-2,10.6.9,9.6,14.4,12.9,22.2,14.3,7.8-1.4,21.3-4.7,22.2-14.3,0-3.7-1-7.2-2-10.6-1.1-4.1-2.2-8-2.2-12.3s1.3-8.7,3.4-12.7c-1.5-1.2-3-2.3-4.5-3.5-5.6,3.2-11.3,3-16.9-.2h0Z"/>
    <path class="st0" d="M36.5,22.8c7,0,12.6,5.6,12.6,12.6s-5.6,12.6-12.6,12.6-12.6-5.6-12.6-12.6,5.6-12.6,12.6-12.6h0Z"/>
    <path class="st1" d="M36.5,26.5c4.9,0,8.9,4,8.9,8.9s-4,8.9-8.9,8.9-8.9-4-8.9-8.9,4-8.9,8.9-8.9h0Z"/>
    <polygon class="st2" points="36.5 28.8 38.1 33.2 42.9 33.4 39.1 36.3 40.4 40.9 36.5 38.3 32.6 40.9 33.9 36.3 30.1 33.4 34.9 33.2 36.5 28.8"/>
  </g>
  <rect class="st3" x=".5" y=".5" width="72" height="72"/>
</svg>