<?xml version="1.0" encoding="UTF-8"?>
<svg id="Layer_1" xmlns="http://www.w3.org/2000/svg" version="1.1" viewBox="0 0 73 73">
  <!-- Generator: Adobe Illustrator 29.4.0, SVG Export Plug-In . SVG Version: 2.1.0 Build 152)  -->
  <defs>
    <style>
      .st0 {
        fill: #cd7b01;
      }

      .st0, .st1, .st2, .st3, .st4, .st5, .st6, .st7 {
        fill-rule: evenodd;
      }

      .st1 {
        fill: #596875;
      }

      .st2 {
        fill: #fcb307;
      }

      .st3 {
        fill: #fddc73;
      }

      .st8 {
        fill: none;
        stroke: #5cb0e2;
        stroke-miterlimit: 10;
      }

      .st4, .st9 {
        fill: #455461;
      }

      .st5 {
        fill: #f4a107;
      }

      .st6 {
        fill: #fdc309;
      }

      .st7 {
        fill: #32404d;
      }
    </style>
  </defs>
  <path class="st6" d="M19.8,10.3h34.6c2.8,0,5.2,2.3,5.2,5.2v40c0,2.4-1.9,4.3-4.3,4.3H18.9c-2.4,0-4.3-1.9-4.3-4.3V15.4c0-2.8,2.3-5.2,5.2-5.2h0Z"/>
  <path class="st2" d="M59.5,42.5v12.9c0,2.4-1.9,4.3-4.3,4.3H18.9c-2.4,0-4.3-1.9-4.3-4.3v-12.9h44.9Z"/>
  <path class="st4" d="M18.9,59.7h7.1v3.9c0,.7-.6,1.3-1.3,1.3h-4.5c-.7,0-1.3-.6-1.3-1.3v-3.9ZM48.2,59.7h7.1v3.9c0,.7-.6,1.3-1.3,1.3h-4.4c-.7,0-1.3-.6-1.3-1.3v-3.9Z"/>
  <path class="st7" d="M18.9,59.7h7.1v1.8h-7.1v-1.8ZM55.3,61.5h-7.1v-1.8h7.1v1.8Z"/>
  <path class="st4" d="M20.4,13.7h33.3c1.6,0,2.9,1.3,2.9,2.9v20c0,1.6-1.3,2.9-2.9,2.9H20.4c-1.6,0-2.9-1.3-2.9-2.9v-20c0-1.6,1.3-2.9,2.9-2.9h0Z"/>
  <path class="st1" d="M24.7,13.7h12.2l-9.1,25.8h-7.4c-1.6,0-2.9-1.3-2.9-2.9v-2.7l7.2-20.2ZM42,13.7h6.8l-9.1,25.8h-6.8l9.1-25.8ZM53.6,13.7h.1c1.1,0,2,.6,2.5,1.5l-8.6,24.4h-3.2l9.1-25.8Z"/>
  <path class="st7" d="M56.6,35v1.6c0,1.6-1.3,2.9-2.9,2.9H20.4c-1.6,0-2.9-1.3-2.9-2.9v-1.6h39.1Z"/>
  <path class="st5" d="M62.8,27.6h3.3c.9,0,1.6.7,1.6,1.6v7.7c0,.9-.7,1.6-1.6,1.6h-3.3c-.9,0-1.6-.7-1.6-1.6v-7.7c0-.9.7-1.6,1.6-1.6h0Z"/>
  <path class="st9" d="M59.5,20.4h3.5c.7,0,1.3.3,1.8.7h0c.4.4.7,1.1.7,1.8v4.6h-2.1v-4.6c0-.1,0-.2-.1-.3h0c0,0-.2-.1-.3-.1h-3.5v-2.1Z"/>
  <path class="st5" d="M11.3,27.6h-3.3c-.9,0-1.6.7-1.6,1.6v7.7c0,.9.7,1.6,1.6,1.6h3.3c.9,0,1.6-.7,1.6-1.6v-7.7c0-.9-.7-1.6-1.6-1.6h0Z"/>
  <path class="st9" d="M14.6,20.4h-3.5c-.7,0-1.3.3-1.7.7h0c-.5.4-.7,1.1-.7,1.8v4.6h2.1v-4.6c0-.1,0-.2.1-.3h0c0,0,.2-.1.3-.1h3.5v-2.1Z"/>
  <path class="st2" d="M21.7,10.3h30.7c0-.9-.7-1.6-1.6-1.6h-27.4c-.9,0-1.6.7-1.6,1.6h0Z"/>
  <path class="st0" d="M28.6,52.4h6.9c.4,0,.7.3.7.7h0c0,.4-.3.7-.7.7h-6.9c-.4,0-.7-.3-.7-.7h0c0-.4.3-.7.7-.7h0ZM38.6,52.4h6.9c.4,0,.7.3.7.7h0c0,.4-.3.7-.7.7h-6.9c-.4,0-.7-.3-.7-.7h0c0-.4.3-.7.7-.7h0ZM38.6,50.2h6.9c.4,0,.7.3.7.7h0c0,.4-.3.7-.7.7h-6.9c-.4,0-.7-.3-.7-.7h0c0-.4.3-.7.7-.7h0ZM38.6,54.6h6.9c.4,0,.7.3.7.7h0c0,.4-.3.7-.7.7h-6.9c-.4,0-.7-.3-.7-.7h0c0-.4.3-.7.7-.7h0ZM28.6,50.2h6.9c.4,0,.7.3.7.7h0c0,.4-.3.7-.7.7h-6.9c-.4,0-.7-.3-.7-.7h0c0-.4.3-.7.7-.7h0ZM28.6,54.6h6.9c.4,0,.7.3.7.7h0c0,.4-.3.7-.7.7h-6.9c-.4,0-.7-.3-.7-.7h0c0-.4.3-.7.7-.7h0Z"/>
  <path class="st3" d="M19.1,50.3h5.7c.7,0,1.3.6,1.3,1.3v2.9c0,.7-.6,1.3-1.3,1.3h-4.5c-1.4,0-2.5-1.1-2.5-2.5v-1.7c0-.7.6-1.3,1.3-1.3h0ZM55,50.3h-5.7c-.7,0-1.3.6-1.3,1.3v2.9c0,.7.6,1.3,1.3,1.3h4.5c1.4,0,2.5-1.1,2.5-2.5v-1.7c0-.7-.6-1.3-1.3-1.3h0Z"/>
  <rect class="st8" x=".5" y=".5" width="72" height="72"/>
</svg>