<?xml version="1.0" encoding="UTF-8"?>
<svg id="Layer_1" xmlns="http://www.w3.org/2000/svg" version="1.1" viewBox="0 0 73 73">
  <!-- Generator: Adobe Illustrator 29.4.0, SVG Export Plug-In . SVG Version: 2.1.0 Build 152)  -->
  <defs>
    <style>
      .st0 {
        fill: #ea883a;
      }

      .st0, .st1, .st2, .st3 {
        fill-rule: evenodd;
      }

      .st1 {
        fill: #81bbc9;
      }

      .st4 {
        fill: none;
        stroke: #5cb0e2;
        stroke-miterlimit: 10;
      }

      .st2 {
        fill: #f89b51;
      }

      .st3 {
        fill: #fef5e5;
      }
    </style>
  </defs>
  <g>
    <path class="st2" d="M44.2,58c3.7,0,7.9,0,11.6,0,0-10.4,1.4-13.6,4.2-23.5,1-4.1.6-5.4-1.9-8.9-2.2-3.2-6.7-8.6-9.3-11.3-3.7,3,.8,8.3,3.6,14.2-1,3.8-2,7.6-3.1,11.4.3-2.7.6-5.3.9-8,.5-4.4-3.8-5.2-4.9-.9-.6,2.2-1.1,4.4-1.7,6.6-4,3.7-4,7.8-1.5,11.2,1.9,2.8,1.5,5.9,2.2,9.3h0Z"/>
    <path class="st0" d="M44.2,58c3.7,0,7.9,0,11.6,0,0-10.4,1.4-13.6,4.2-23.5,1-4.1.6-5.4-1.9-8.9-.6-.8-1.3-1.8-2.1-2.8,1.5,3.6,3,7.9,2.2,10-1.7,4.4-3.3,8.7-5,13.1-1.1,2.9-7,3.7-10.7,3.7,1.4,2.5,1,5.4,1.6,8.5h0Z"/>
    <path class="st1" d="M40.7,60.5v-7.5c0-1,.8-1.8,1.8-1.8h14.2c1,0,1.8.8,1.8,1.8v7.5c0,1-.8,1.8-1.8,1.8h-14.2c-1,0-1.8-.8-1.8-1.8h0Z"/>
    <path class="st2" d="M28.8,58c-3.7,0-7.9,0-11.5,0,0-10.4-1.4-13.6-4.2-23.5-1-4.1-.6-5.4,1.9-8.9,2.2-3.2,6.7-8.6,9.3-11.3,3.7,3-.8,8.3-3.6,14.2,1,3.8,2.1,7.6,3.1,11.4-.3-2.7-.6-5.3-.9-8-.5-4.4,3.8-5.2,4.9-.9.6,2.2,1.1,4.4,1.7,6.6,4,3.7,4,7.8,1.6,11.2-1.9,2.8-1.5,5.9-2.2,9.3h0Z"/>
    <path class="st0" d="M28.8,58c-3.7,0-7.9,0-11.5,0,0-10.4-1.4-13.6-4.2-23.5-1-4.1-.6-5.4,1.9-8.9.6-.8,1.3-1.8,2-2.8-1.4,3.6-3,7.9-2.2,10,1.6,4.4,3.3,8.7,4.9,13.1,1.1,2.9,7,3.7,10.7,3.7-1.4,2.5-1,5.4-1.7,8.5h0Z"/>
    <path class="st1" d="M32.3,60.5v-7.5c0-1-.8-1.8-1.8-1.8h-14.2c-1,0-1.8.8-1.8,1.8v7.5c0,1,.8,1.8,1.8,1.8h14.2c1,0,1.8-.8,1.8-1.8h0Z"/>
    <path class="st1" d="M36.5,10.8c5.1,0,9.3,4.2,9.3,9.3s-4.2,9.3-9.3,9.3-9.3-4.2-9.3-9.3,4.2-9.3,9.3-9.3h0Z"/>
    <path class="st3" d="M35.6,13.6h1.8c.6,0,1.1.5,1.1,1.1v3.4h3.4c.6,0,1.1.5,1.1,1.1v1.8c0,.6-.5,1.1-1.1,1.1h-3.4v3.4c0,.6-.5,1.1-1.1,1.1h-1.8c-.6,0-1.1-.5-1.1-1.1v-3.4h-3.4c-.6,0-1.1-.5-1.1-1.1v-1.8c0-.6.5-1.1,1.1-1.1h3.4v-3.4c0-.6.5-1.1,1.1-1.1h0Z"/>
  </g>
  <rect class="st4" x=".5" y=".5" width="72" height="72"/>
</svg>