<?xml version="1.0" encoding="UTF-8"?>
<svg id="Layer_1" xmlns="http://www.w3.org/2000/svg" version="1.1" viewBox="0 0 73 73">
  <!-- Generator: Adobe Illustrator 29.4.0, SVG Export Plug-In . SVG Version: 2.1.0 Build 152)  -->
  <defs>
    <style>
      .st0 {
        fill: #454c5e;
      }

      .st0, .st1, .st2, .st3, .st4, .st5, .st6, .st7, .st8, .st9 {
        fill-rule: evenodd;
      }

      .st1 {
        fill: #8188a1;
      }

      .st2 {
        fill: #eae1d0;
      }

      .st3 {
        fill: #fff;
      }

      .st10 {
        fill: none;
        stroke: #5cb0e2;
        stroke-miterlimit: 10;
      }

      .st11 {
        fill: #ac2e24;
      }

      .st4 {
        fill: #c04227;
      }

      .st5 {
        fill: #f4742a;
      }

      .st6 {
        fill: #7e92a3;
      }

      .st7 {
        fill: #595f72;
      }

      .st8 {
        fill: #fef5e5;
      }

      .st9 {
        fill: #60abb5;
      }
    </style>
  </defs>
  <g>
    <path class="st2" d="M12.9,25.5h35.8c.9,0,1.6.4,2.2,1h0l11.2,9.7h0c.6.5,1,1.3,1,2.2v10c0,1.6-1.3,2.9-2.9,2.9H12.9c-1.6,0-2.9-1.3-2.9-2.9v-19.9c0-1.6,1.3-2.9,2.9-2.9h0Z"/>
    <path class="st8" d="M15.5,25.5h33.1c.9,0,1.6.4,2.2,1h0l11.2,9.7h0c.6.5,1,1.3,1,2.2v10c0,.1,0,.3,0,.4H17.5c-1.1,0-2-.9-2-2v-21.2Z"/>
    <path class="st7" d="M52.4,27.8l9.6,8.3h0c.2.1.3.3.4.4h-15.9c-1.1,0-2-.9-2-2v-4.8c0-1.1.9-2,2-2h5.8Z"/>
    <path class="st1" d="M60.5,36.6h-2.2l-10-8.8h2.2l10,8.8ZM53.9,36.6h-5.5l-3.8-3.4v-3.5c0-.4.1-.8.4-1.1l9,7.9Z"/>
    <path class="st7" d="M9.6,47.3h2.7c.5,0,.8.4.8.8v1.1c0,.5-.4.8-.8.8h-2.7c-.5,0-.8-.4-.8-.8v-1.1c0-.5.4-.8.8-.8h0Z"/>
    <path class="st7" d="M60.7,47.3h2.7c.5,0,.8.4.8.8v1.1c0,.5-.4.8-.8.8h-2.7c-.5,0-.8-.4-.8-.8v-1.1c0-.5.4-.8.8-.8h0Z"/>
    <path class="st4" d="M10,40.7h33.8c.2,0,.4.2.4.4v2.2c0,.2-.2.4-.4.4H10v-3Z"/>
    <rect class="st11" x="10" y="40.7" width="5.5" height="3"/>
    <path class="st4" d="M30.4,28c3,0,5.5,2.4,5.5,5.5s-2.5,5.5-5.5,5.5-5.5-2.4-5.5-5.5,2.5-5.5,5.5-5.5h0Z"/>
    <path class="st7" d="M34.4,25.5h8.7c0-.6-.5-1.1-1.1-1.1h-6.5c-.6,0-1.1.5-1.1,1.1h0Z"/>
    <path class="st9" d="M37.5,19.2h2.4c.5,0,1,.4,1.1.9,0,.6.2,1.2.3,1.8.1.7.2,1.5.4,2.4h-5.8c.1-.9.3-1.7.4-2.4.1-.7.2-1.3.3-1.8,0-.5.5-.9,1.1-.9h0Z"/>
    <path class="st3" d="M29.7,29.7h1.3c.3,0,.6.3.6.6v1.8h1.8c.4,0,.6.3.6.6v1.3c0,.4-.3.6-.6.6h-1.8v1.8c0,.3-.3.6-.6.6h-1.3c-.3,0-.6-.3-.6-.6v-1.8h-1.8c-.3,0-.6-.3-.6-.6v-1.3c0-.4.3-.6.6-.6h1.8v-1.8c0-.3.3-.6.6-.6h0Z"/>
    <path class="st0" d="M56.2,51.2h-9.9c0-.3-.1-.7-.1-1,0-2.8,2.3-5.1,5.1-5.1s5.1,2.3,5.1,5.1,0,.7-.1,1h0Z"/>
    <path class="st6" d="M51.2,46.5c2,0,3.7,1.6,3.7,3.7s-1.6,3.7-3.7,3.7-3.7-1.7-3.7-3.7,1.6-3.7,3.7-3.7h0Z"/>
    <path class="st7" d="M51.2,48.9c.7,0,1.3.6,1.3,1.3s-.6,1.3-1.3,1.3-1.3-.6-1.3-1.3.6-1.3,1.3-1.3h0Z"/>
    <path class="st0" d="M28.4,51.2h-9.9c0-.3-.1-.7-.1-1,0-2.8,2.3-5.1,5.1-5.1s5.1,2.3,5.1,5.1,0,.7-.1,1h0Z"/>
    <path class="st6" d="M23.4,46.5c2,0,3.7,1.6,3.7,3.7s-1.6,3.7-3.7,3.7-3.7-1.7-3.7-3.7,1.6-3.7,3.7-3.7h0Z"/>
    <path class="st7" d="M23.4,48.9c.7,0,1.3.6,1.3,1.3s-.6,1.3-1.3,1.3-1.3-.6-1.3-1.3.6-1.3,1.3-1.3h0Z"/>
    <path class="st2" d="M47.1,38.9h3.8c.4,0,.7.3.7.7h0c0,.4-.3.7-.7.7h-3.8c-.4,0-.7-.3-.7-.7h0c0-.4.4-.7.7-.7h0Z"/>
    <path class="st5" d="M61.5,39h1.5v4.2h-.9c-1,0-1.9-.9-1.9-1.9v-1.1c0-.7.6-1.2,1.3-1.2h0Z"/>
    <path class="st0" d="M60,34.4l2,1.8h0c.2.1.3.3.4.4h-15.9c-1.1,0-2-.9-2-2v-.2h15.4Z"/>
  </g>
  <rect class="st10" x=".5" y=".5" width="72" height="72"/>
</svg>