<?xml version="1.0" encoding="UTF-8"?>
<svg id="Layer_1" xmlns="http://www.w3.org/2000/svg" version="1.1" viewBox="0 0 73 73">
  <!-- Generator: Adobe Illustrator 29.4.0, SVG Export Plug-In . SVG Version: 2.1.0 Build 152)  -->
  <defs>
    <style>
      .st0 {
        fill: #a4b1b7;
      }

      .st0, .st1, .st2, .st3, .st4, .st5 {
        fill-rule: evenodd;
      }

      .st1, .st6 {
        fill: #2c3439;
      }

      .st7 {
        fill: #6d7f89;
      }

      .st2 {
        fill: #596166;
      }

      .st3 {
        fill: #929fa6;
      }

      .st8 {
        fill: none;
        stroke: #5cb0e2;
        stroke-miterlimit: 10;
      }

      .st9 {
        fill: #80919b;
      }

      .st4 {
        fill: #464f53;
      }

      .st5 {
        fill: #40494c;
      }
    </style>
  </defs>
  <g>
    <path class="st2" d="M22.6,26h27.7c.3,0,.6.3.6.6v2.2c0,.4-.3.6-.6.6h-27.7c-.4,0-.6-.3-.6-.6v-2.2c0-.4.3-.6.6-.6h0Z"/>
    <path class="st4" d="M22.6,26h5.3c-.2,0-.4.3-.4.6v2.2c0,.4.2.6.4.6h-5.3c-.4,0-.6-.3-.6-.6v-2.2c0-.4.3-.6.6-.6h0Z"/>
    <path class="st5" d="M23.4,29.5h26.2v7.2c0,4.5-7.2,7.3-7.8,11.6v2.7c0,1-.8,1.8-1.8,1.8h-7c-1,0-1.8-.8-1.8-1.8v-2.7c-.6-4.3-7.8-7-7.8-11.6v-7.2h0Z"/>
    <path class="st1" d="M23.4,29.5h4.4v7.2c0,4.5,4.8,7.3,5.2,11.6v2.7c0,1,.6,1.8,1.2,1.8h-1.1c-1,0-1.8-.8-1.8-1.8v-2.7c-.6-4.3-7.8-7-7.8-11.6v-7.2h0Z"/>
    <path class="st1" d="M32.2,36.3h8.5c.2,0,.3.1.3.3v.7c0,.1-.1.3-.3.3h-8.5c-.1,0-.3-.1-.3-.3v-.7c0-.1.1-.3.3-.3h0ZM32.2,38.8h8.5c.2,0,.3.1.3.3v.7c0,.1-.1.3-.3.3h-8.5c-.1,0-.3-.1-.3-.3v-.7c0-.1.1-.3.3-.3h0ZM32.2,33.7h8.5c.2,0,.3.1.3.3v.7c0,.1-.1.3-.3.3h-8.5c-.1,0-.3-.1-.3-.3v-.7c0-.1.1-.3.3-.3h0Z"/>
    <rect class="st6" x="23.4" y="29.5" width="26.2" height="1.2"/>
    <path class="st1" d="M32.6,48.1h7.1c.2,0,.4.2.4.4h0c0,.2-.2.4-.4.4h-7.1c-.2,0-.4-.2-.4-.4h0c0-.2.2-.4.4-.4h0Z"/>
    <rect class="st9" x="34.5" y="52.8" width="3.9" height="10"/>
    <path class="st0" d="M28.8,10.2h2.1c.5,0,.9.4.9.9v14.9h-3.9v-14.9c0-.5.4-.9.9-.9h0ZM29.2,11.8h1.4v3.6h-1.4v-3.6ZM42.1,10.2h2.1c.5,0,.9.4.9.9v14.9h-3.9v-14.9c0-.5.4-.9.9-.9h0ZM42.5,11.8h1.4v3.6h-1.4v-3.6Z"/>
    <path class="st3" d="M31.8,24.9v1.1h-3.9v-1.1h3.9ZM45.1,24.9h-3.9v1.1h3.9v-1.1Z"/>
    <rect class="st7" x="34.5" y="52.8" width="3.9" height="1.8"/>
  </g>
  <rect class="st8" x=".5" y=".5" width="72" height="72"/>
</svg>