<?xml version="1.0" encoding="UTF-8"?>
<svg id="Layer_1" xmlns="http://www.w3.org/2000/svg" version="1.1" viewBox="0 0 73 73">
  <!-- Generator: Adobe Illustrator 29.4.0, SVG Export Plug-In . SVG Version: 2.1.0 Build 152)  -->
  <defs>
    <style>
      .st0, .st1 {
        fill: #fcdc53;
      }

      .st0, .st2, .st3, .st4 {
        fill-rule: evenodd;
      }

      .st5, .st3 {
        fill: #3597e0;
      }

      .st6 {
        fill: none;
        stroke: #5cb0e2;
        stroke-miterlimit: 10;
      }

      .st2 {
        fill: #88c1c8;
      }

      .st4 {
        fill: #e94c3d;
      }
    </style>
  </defs>
  <g>
    <path class="st0" d="M36.5,10.7c-14.2,0-25.8,11.5-25.8,25.8s11.5,25.8,25.8,25.8,25.8-11.5,25.8-25.8-11.5-25.8-25.8-25.8h0Z"/>
    <polygon class="st2" points="41.6 36.3 44.4 33.4 49.5 33.4 52.2 36.3 52.2 50 41.6 50 41.6 36.3 41.6 36.3"/>
    <polygon class="st3" points="43.5 29.4 50.4 29.4 50.4 32.3 43.5 32.3 43.5 29.4 43.5 29.4"/>
    <path class="st4" d="M46.3,39h1.2c.2,0,.4.2.4.4v1.3h1.3c.2,0,.4.2.4.4v1.2c0,.2-.2.4-.4.4h-1.3v1.3c0,.2-.2.4-.4.4h-1.2c-.2,0-.4-.2-.4-.4v-1.3h-1.3c-.2,0-.4-.2-.4-.4v-1.2c0-.2.2-.4.4-.4h1.3v-1.3c0-.2.2-.4.4-.4h0Z"/>
    <path class="st3" d="M25.9,42.4l-5.2,7.6,5.2-7.6h0ZM38.3,17.8l6.2,4.3-6.2-4.3h0ZM41.4,19.9l-4.3,6.2,4.3-6.2h0ZM23.4,36.4l2.5,6h6.4c0,.1,9-13,9-13l-8.9-6.1-9,13.1h0Z"/>
    <path class="st5" d="M26.2,42.9l-5,7.3c-.2.3-.5.3-.8.2-.3-.2-.3-.5-.2-.8l5-7.3-2.4-5.7h0c0-.2,0-.4,0-.6l9-13.1c.2-.3.5-.3.8-.2l4.1,2.8,3.8-5.5-2.6-1.8c-.3-.2-.3-.5-.2-.8.2-.3.5-.3.8-.2l6.2,4.3c.3.2.3.5.2.8-.2.3-.5.3-.8.2l-2.6-1.8-3.8,5.5,3.9,2.7c.3.2.3.5.2.8l-9,13.1h0c-.1.2-.3.3-.5.3h-6.1ZM24.1,36.4l2.2,5.4h5.7c0,.1,8.5-12.3,8.5-12.3l-8-5.5-8.5,12.4h0Z"/>
    <path class="st1" d="M33,34.1c-.3-.2-.3-.5-.2-.8.2-.3.5-.3.8-.2l2.3,1.5c.3.2.3.5.2.8-.2.3-.5.3-.8.2l-2.3-1.5h0Z"/>
    <path class="st1" d="M31.1,36.9c-.3-.2-.3-.5-.2-.8s.5-.3.8-.2l2.3,1.5c.3.2.3.5.2.8s-.5.3-.8.2l-2.3-1.5h0Z"/>
    <path class="st1" d="M29.1,39.8c-.3-.2-.3-.5-.2-.8.2-.3.5-.3.8-.2l2.3,1.5c.3.2.3.5.2.8-.2.3-.5.3-.8.2l-2.3-1.5h0Z"/>
    <path class="st1" d="M35,31.3c-.3-.2-.3-.5-.2-.8.2-.3.5-.3.8-.2l2.3,1.5c.3.2.3.5.2.8-.2.3-.5.3-.8.2l-2.3-1.5h0Z"/>
  </g>
  <rect class="st6" x=".5" y=".5" width="72" height="72"/>
</svg>