<?xml version="1.0" encoding="UTF-8"?>
<svg id="Layer_1" xmlns="http://www.w3.org/2000/svg" version="1.1" viewBox="0 0 73 73">
  <!-- Generator: Adobe Illustrator 29.4.0, SVG Export Plug-In . SVG Version: 2.1.0 Build 152)  -->
  <defs>
    <style>
      .st0 {
        fill: #454c5e;
      }

      .st0, .st1, .st2, .st3, .st4 {
        fill-rule: evenodd;
      }

      .st5, .st1 {
        fill: #31374a;
      }

      .st6 {
        fill: none;
        stroke: #5cb0e2;
        stroke-miterlimit: 10;
      }

      .st2 {
        fill: #f4742a;
      }

      .st3 {
        fill: #595f72;
      }

      .st4 {
        fill: #93a6b7;
      }
    </style>
  </defs>
  <path class="st1" d="M24.7,54h2.5l-3,5.1h25.9l-3-5.1h2.5l10.1,14.2h-4.1l-1.5-2.5H20.2l-1.5,2.5h-4.1l10.1-14.2ZM23.3,60.5l-1.9,3.2h31.3l-1.9-3.2h-27.6Z"/>
  <path class="st2" d="M24.1,7.6h26c4.5,0,8.2,3.7,8.2,8.2v32.9c0,4.5-3.7,8.2-8.2,8.2h-26c-4.5,0-8.2-3.7-8.2-8.2V15.8c0-4.5,3.7-8.2,8.2-8.2h0Z"/>
  <path class="st0" d="M58.1,50.6c-.8,3.6-4.1,6.4-8,6.4h-26c-3.9,0-7.2-2.7-8-6.4h11.2v-.9c0-.9.7-1.6,1.6-1.6h16.3c.9,0,1.6.7,1.6,1.6v.9h11.2Z"/>
  <path class="st0" d="M24.1,12h25.9c2.6,0,4.7,2.1,4.7,4.7v15.5c0,2.6-2.1,4.7-4.7,4.7h-25.9c-2.6,0-4.7-2.1-4.7-4.7v-15.5c0-2.6,2.1-4.7,4.7-4.7h0Z"/>
  <path class="st1" d="M24.1,13.1h20.2l-15.8,22.7h-4.4c-2,0-3.6-1.6-3.6-3.6v-15.5c0-2,1.6-3.6,3.6-3.6h0Z"/>
  <path class="st3" d="M54.7,29.8v2.4c0,2.6-2.1,4.7-4.7,4.7h-25.9c-2.6,0-4.7-2.1-4.7-4.7v-2.4h35.3Z"/>
  <path class="st3" d="M21.6,40.4h6.7c.9,0,1.6.7,1.6,1.6v1.7c0,.9-.7,1.6-1.6,1.6h-6.7c-.9,0-1.6-.7-1.6-1.6v-1.7c0-.9.7-1.6,1.6-1.6h0Z"/>
  <path class="st4" d="M24.9,41.4c.8,0,1.5.7,1.5,1.5s-.7,1.5-1.5,1.5-1.5-.7-1.5-1.5.6-1.5,1.5-1.5h0Z"/>
  <path class="st3" d="M45.9,40.4h6.7c.9,0,1.6.7,1.6,1.6v1.7c0,.9-.7,1.6-1.6,1.6h-6.7c-.9,0-1.6-.7-1.6-1.6v-1.7c0-.9.7-1.6,1.6-1.6h0Z"/>
  <path class="st4" d="M49.2,41.4c.8,0,1.5.7,1.5,1.5s-.7,1.5-1.5,1.5-1.5-.7-1.5-1.5.6-1.5,1.5-1.5h0Z"/>
  <path class="st0" d="M33.7,38.8h6.8c.8,0,1.5.7,1.5,1.5v4.8c0,.8-.7,1.5-1.5,1.5h-6.8c-.8,0-1.6-.7-1.6-1.5v-4.8c0-.8.7-1.5,1.6-1.5h0Z"/>
  <path class="st1" d="M30.2,49.8h13.7c.6,0,1.1.5,1.1,1.1v3.5c0,.6-.5,1.1-1.1,1.1h-13.7c-.6,0-1.1-.5-1.1-1.1v-3.5c0-.6.5-1.1,1.1-1.1h0Z"/>
  <path class="st2" d="M10.4,21.3h2.6c.8,0,1.5.6,1.5,1.5v5.5c0,.8-.6,1.4-1.5,1.4h-2.6c-.8,0-1.5-.6-1.5-1.4v-5.5c0-.8.6-1.5,1.5-1.5h0Z"/>
  <path class="st5" d="M11.2,21.3v-2.8c0-.5.2-1,.6-1.3.4-.4.8-.6,1.3-.6h2.8v1.1h-2.8c-.2,0-.4,0-.6.2-.1.1-.2.4-.2.6v2.8h-1.1Z"/>
  <path class="st2" d="M63.7,21.3h-2.6c-.8,0-1.4.6-1.4,1.5v5.5c0,.8.6,1.4,1.4,1.4h2.6c.8,0,1.5-.6,1.5-1.4v-5.5c0-.8-.7-1.5-1.5-1.5h0Z"/>
  <path class="st5" d="M63,21.3v-2.8c0-.5-.2-1-.6-1.3-.4-.4-.8-.6-1.3-.6h-2.8v1.1h2.8c.2,0,.4,0,.5.2s.2.4.2.6v2.8h1.1Z"/>
  <rect class="st6" x=".5" y=".5" width="72" height="72"/>
</svg>