<?xml version="1.0" encoding="UTF-8"?>
<svg id="Layer_1" xmlns="http://www.w3.org/2000/svg" version="1.1" viewBox="0 0 73 73">
  <!-- Generator: Adobe Illustrator 29.4.0, SVG Export Plug-In . SVG Version: 2.1.0 Build 152)  -->
  <defs>
    <style>
      .st0 {
        fill: #fff;
      }

      .st1 {
        fill: none;
        stroke: #5cb0e2;
        stroke-miterlimit: 10;
      }

      .st2 {
        fill: #1a82ca;
      }

      .st3 {
        opacity: .2;
      }

      .st4 {
        fill: #072e67;
      }
    </style>
  </defs>
  <g>
    <path class="st0" d="M36.5,67.7c-9.6-5.2-24.8-18.4-24.8-32.7V15.2c0,0,0-.2.2-.2,1.4-.3,10-2.3,12.9-3.3,2.9-1.1,10.6-5.1,11.7-5.6,0,0,.2,0,.3,0,1.1.6,8.8,4.6,11.7,5.6,2.9,1,11.5,3,12.9,3.3.1,0,.2.1.2.2v19.9c0,14.3-15.2,27.5-24.8,32.7,0,0-.2,0-.3,0Z"/>
    <path class="st2" d="M36.6,63.9c-8.9-5.4-21.2-16.9-21.2-28.8v-17.5c3.4-.8,8.5-2.1,10.8-2.9,2.4-.9,7.4-3.4,10.4-4.9,3,1.5,8,4,10.4,4.9,2.3.8,7.4,2.1,10.8,2.9v17.5c0,11.9-12.3,23.4-21.2,28.8Z"/>
    <path class="st4" d="M36.6,68.8c-.3,0-.5,0-.8-.2-5.7-3.1-11.8-8-16.3-13.2-5.9-6.8-9.1-13.9-9.1-20.4V15.2c0-.6.5-1.1,1.1-1.3,1-.2,9.9-2.3,12.7-3.3,2.8-1,10.7-5.1,11.6-5.5.5-.2,1.1-.2,1.5,0,.9.5,8.7,4.5,11.6,5.5,2.8,1,11.7,3.1,12.7,3.3.7.2,1.1.7,1.1,1.3v19.9c0,6.5-3.1,13.6-9.1,20.4-4.5,5.2-10.6,10.1-16.3,13.2-.2.1-.5.2-.8.2ZM37.1,66.8s0,0,0,0c0,0,0,0,0,0ZM12.9,15.8v19.2c0,7.7,4.7,14.6,8.6,19.1,4.2,4.8,9.8,9.4,15.1,12.4,5.3-3,10.9-7.5,15.1-12.4,3.9-4.5,8.6-11.4,8.6-19.1V15.8c-2.7-.6-9.7-2.3-12.3-3.2-2.7-1-9.2-4.3-11.4-5.4-2.2,1.1-8.7,4.4-11.4,5.4-2.6,1-9.7,2.6-12.3,3.2Z"/>
    <g>
      <g>
        <path class="st0" d="M36.8,21.8h-.5c-4.4,0-8,3.6-8,8v5.2h16.5v-5.2c0-4.4-3.6-8-8-8ZM42.7,32.8h-12.1v-3c0-3.2,2.6-5.8,5.8-5.8h.5c3.2,0,5.8,2.6,5.8,5.8v3Z"/>
        <rect class="st0" x="25" y="32.9" width="23.2" height="19" rx="3.2" ry="3.2"/>
      </g>
      <path class="st2" d="M39.1,40c0,.9-.4,1.6-1.1,2.1-.2.1-.3.3-.3.5v4.1c0,.3-.2.6-.6.6h-1.1c-.3,0-.6-.2-.6-.6v-4.1c0-.2,0-.4-.3-.5-.7-.4-1.1-1.2-1.1-2.1,0-1.4,1.1-2.5,2.6-2.5,1.3,0,2.4,1.2,2.4,2.5Z"/>
    </g>
    <path class="st0" d="M16.2,26.7v-8.5s4.6-1.1,5.5-1.6c0,0-2.5,1.7-4,2.2l-1.5,7.9Z"/>
    <path class="st0" d="M35.3,61.9s-7-4.6-8.4-6.9c0,0,3.1,2.7,4.2,3.2s4.1,3.7,4.1,3.7Z"/>
    <g class="st3">
      <path class="st4" d="M61.5,15.2v19.9c0,14.3-15.2,27.5-24.8,32.7,0,0,0,0-.1,0V6s0,0,.1,0c1.1.6,8.8,4.6,11.7,5.6,2.9,1,11.5,3,12.9,3.3.1,0,.2.1.2.2Z"/>
    </g>
  </g>
  <rect class="st1" x=".5" y=".5" width="72" height="72"/>
</svg>