<?xml version="1.0" encoding="UTF-8"?>
<svg id="Layer_1" xmlns="http://www.w3.org/2000/svg" version="1.1" viewBox="0 0 73 73">
  <!-- Generator: Adobe Illustrator 29.4.0, SVG Export Plug-In . SVG Version: 2.1.0 Build 152)  -->
  <defs>
    <style>
      .st0 {
        fill: #ff4f30;
      }

      .st1 {
        fill: #5f6182;
      }

      .st1, .st2, .st3, .st4 {
        opacity: .2;
      }

      .st5 {
        fill: #ffe9e6;
      }

      .st5, .st6, .st7, .st8 {
        opacity: .4;
      }

      .st9 {
        fill: #43455c;
      }

      .st10 {
        opacity: .3;
      }

      .st11 {
        fill: #fff;
      }

      .st12 {
        fill: none;
        stroke: #5cb0e2;
        stroke-miterlimit: 10;
      }

      .st13 {
        fill: #ffdf8b;
      }

      .st14, .st7 {
        fill: #9ca0d6;
      }

      .st15, .st8 {
        fill: #babfff;
      }

      .st16 {
        fill: #ab2020;
      }

      .st16, .st17 {
        opacity: 0;
      }

      .st3 {
        fill: #ffd3a6;
      }

      .st4 {
        fill: #5c4405;
      }
    </style>
  </defs>
  <rect class="st12" x=".5" y=".5" width="72" height="72"/>
  <g>
    <circle class="st7" cx="9" cy="31" r="5.2" transform="translate(-23.3 31.8) rotate(-75.1)"/>
    <rect class="st15" x="42.7" y="43" width=".8" height="3.7"/>
    <rect class="st14" x="42.4" y="27.4" width="1" height="1.7"/>
    <path class="st0" d="M43.1,30.4h-.3c-.5,0-.9-.4-.9-.9h0c0-.5.4-.9.9-.9h.3c.5,0,.9.4.9.9h0c0,.5-.4.9-.9.9Z"/>
    <path class="st2" d="M42.7,44.8h.8v-1.7h-.8v1.7Z"/>
    <path class="st0" d="M53.5,31.2c-4-2.3-14.5-2.9-17.8-.5-.1,0-.2.2-.3.3-.7.6-2.7,1.8-6.8,1.8h-13.7c-.9,0-1.7-.4-2.1-1.1l-2.7-4.1h-5.7s4.3,10.5,8.1,10.5h13.6c1.6,0,7.1-.1,13.1,4.6h0c.9.8,1.9,1.3,2.9,1.3h14.5c18,0,.8-10.7-3.1-12.9Z"/>
    <path class="st13" d="M48.8,41.4v-1.7c0-.3-.2-.6-.6-.6h-16.1c1.7.5,3.7,1.4,5.8,2.8h10.3c.3,0,.6-.2.6-.6Z"/>
    <path class="st5" d="M56.7,43.8h-14.5c-1,0-2-.5-2.9-1.3h0c-6-4.7-11.4-4.6-13.1-4.6h-13.6c-3.4,0-7.2-8.4-7.9-10.2h-.3s4.3,10.5,8.1,10.5h13.6c1.6,0,7.1-.1,13.1,4.6h0c.9.8,1.9,1.3,2.9,1.3h14.5c5.5,0,7.7-1,8-2.4-.6,1.3-2.9,2.1-7.9,2.1Z"/>
    <path class="st3" d="M9.8,28.2l2.7,4.1c.5.7,1.3,1.1,2.1,1.1h13.7c4.1,0,6.1-1.2,6.8-1.8,0-.1.2-.2.3-.3,3.2-2.4,13.8-1.8,17.8.5,2.8,1.6,12,7.3,11.1,10.5,2.2-3.2-8-9.4-10.9-11.1-4-2.3-14.5-2.9-17.8-.5-.1,0-.2.2-.3.3-.7.6-2.7,1.8-6.8,1.8h-13.7c-.9,0-1.7-.4-2.1-1.1l-2.7-4.1h-5.7s0,.2.2.5h5.2Z"/>
    <path class="st16" d="M57,42.6h-14.5c-1,0-2-.5-2.9-1.3h0c-6-4.7-11.4-4.6-13.1-4.6h-13.6c-2.9,0-6.1-6.1-7.4-9h-1.1s4.3,10.5,8.1,10.5h13.6c1.6,0,7.1-.1,13.1,4.6h0c.9.8,1.9,1.3,2.9,1.3h14.5c6.4,0,8.3-1.3,8.1-3.1-.9,1-3.2,1.6-7.6,1.6Z"/>
    <path class="st4" d="M57.2,33.6c-1.6-.9-3-1.7-3.8-2.1-1.9-1.1-5.3-1.8-8.6-2-2.8,3.7,3.6,9.9,7.7,9.9h11.4c-1.3-1.9-4.2-4.1-6.7-5.8Z"/>
    <path class="st13" d="M53.5,31.2c-1.9-1.1-5.3-1.8-8.6-2-2.8,3.7,3.6,9.9,7.7,9.9h11.2c-2.3-3.1-8.2-6.7-10.3-7.9Z"/>
    <path class="st14" d="M53.5,31.2c-1.6-.9-4.4-1.6-7.3-1.9-3.7,3.1,2.6,9.1,6.5,9.1h10.5c-2.6-2.9-7.8-6.1-9.7-7.2Z"/>
    <path class="st8" d="M46,30.5c2.9.3,5.7.9,7.3,1.9,1.7,1,5.9,3.6,8.7,6.1h1.2c-2.6-2.9-7.8-6.1-9.7-7.2-1.6-.9-4.4-1.6-7.3-1.9-.8.7-1.2,1.6-1.1,2.5.2-.5.5-1,1-1.4Z"/>
    <path class="st1" d="M62.6,37.8h-9.4c-3.6,0-9.3-5-7.2-8.3-3.4,3.2,2.8,8.9,6.7,8.9h10.5c-.2-.2-.4-.4-.6-.7Z"/>
    <g>
      <path class="st1" d="M52.7,38.3c-3.5,0-8.9-4.7-7.4-7.9-1.7,3.2,3.7,8.1,7.3,8.1h10.5c0,0-.1-.1-.2-.2h-10.3Z"/>
      <path class="st1" d="M46,29.5s0,0,0,0c0,0,0,.1,0,.2,0,0,0-.1,0-.2Z"/>
    </g>
    <path class="st14" d="M69.1,27.7c0,.4-11.8.7-26.3.7s-26.3-.3-26.3-.7,11.8-.7,26.3-.7,26.3.3,26.3.7Z"/>
    <g class="st10">
      <path class="st15" d="M48.8,29.8l-2.5,5c.6.7,1.3,1.4,2.1,2,1.5-1.8,3.1-3.8,4.7-5.7-1.1-.6-2.6-1-4.3-1.3Z"/>
      <path class="st15" d="M49.9,37.7c.9.5,1.9.7,2.7.7h1.2l5.3-3.6c-1.4-1-2.8-2-4-2.7l-5.2,5.5Z"/>
    </g>
    <g>
      <path class="st15" d="M61.9,47.1h-22.4c-3,0-4.1-3.6-4.2-3.7,0-.2,0-.4.2-.4.2,0,.4,0,.4.2,0,0,1,3.3,3.5,3.3h22.4c2,0,3.3-.5,4-1.4.8-1.2.2-2.8.2-2.8,0-.2,0-.4.2-.4.2,0,.4,0,.4.2,0,0,.8,1.9-.3,3.4-.8,1.1-2.3,1.7-4.5,1.7Z"/>
      <g class="st6">
        <path class="st11" d="M66.4,45.4c-.8,1.1-2.3,1.7-4.5,1.7h-22.4c-3,0-4.1-3.6-4.2-3.7,0,0,0,0,0-.1,0,0,0,.1,0,.2,0,.2,1.2,3.7,4.2,3.7h22.4c2.2,0,3.7-.6,4.5-1.7.3-.4.4-.8.5-1.2,0,.4-.2.8-.5,1.1Z"/>
        <path class="st11" d="M66.2,44.1c.2-1-.2-1.9-.2-1.9,0,0,0,0,0-.1,0,0,0,.1,0,.2,0,0,.4.9.2,1.9Z"/>
      </g>
      <g class="st6">
        <path class="st11" d="M66.2,41.9c.2,0,.4,0,.4.2,0,0,.3.7.3,1.4,0-.8-.3-1.5-.3-1.5,0-.2-.3-.2-.4-.2-.1,0-.2.2-.2.4,0-.1,0-.2.2-.2Z"/>
        <path class="st11" d="M35.6,43.1c.2,0,.4,0,.4.2,0,0,1,3.3,3.5,3.3h22.4c2,0,3.3-.5,4-1.4.3-.5.4-1,.4-1.5,0,.5-.1,1-.4,1.4-.6.9-2,1.4-4,1.4h-22.4c-2.5,0-3.5-3.2-3.5-3.3,0-.2-.2-.3-.4-.2-.2,0-.2.2-.2.4,0-.1.1-.2.2-.3Z"/>
      </g>
      <g class="st17">
        <path class="st9" d="M66.3,43.4c0-.7-.1-1.2-.2-1.4,0,0,0,.2,0,.3,0,0,.2.5.2,1.1Z"/>
        <path class="st9" d="M66.4,45.1c-.8,1.1-2.3,1.7-4.5,1.7h-22.4c-2.8,0-3.9-3.1-4.1-3.6,0,0,0,.2,0,.3,0,.2,1.2,3.7,4.2,3.7h22.4c2.2,0,3.7-.6,4.5-1.7.5-.7.6-1.4.5-2,0,.5-.2,1.1-.5,1.7Z"/>
      </g>
    </g>
    <g>
      <path class="st0" d="M40.3,41.1l-.3-.4h-.3v.4h-.3v-1.5h.6c.1,0,.2,0,.3,0,0,0,.2.1.2.2,0,0,0,.2,0,.3s0,.2,0,.3c0,0-.1.1-.2.2l.3.5h-.4ZM40.2,40c0,0-.1,0-.2,0h-.3v.5h.3c.1,0,.2,0,.2,0,0,0,0-.1,0-.2s0-.1,0-.2Z"/>
      <path class="st0" d="M42,40.9v.3h-1.1v-1.5h1.1v.3h-.8v.3h.7v.3h-.7v.3h.8Z"/>
      <path class="st0" d="M42.4,41.1c-.1,0-.2,0-.3-.1v-.3c.2,0,.3,0,.3.1,0,0,.2,0,.3,0s.2,0,.2,0c0,0,0,0,0-.1s0,0,0,0c0,0,0,0-.1,0,0,0-.1,0-.2,0-.1,0-.2,0-.3,0,0,0-.1,0-.2-.1,0,0,0-.1,0-.2s0-.2,0-.2c0,0,.1-.1.2-.2,0,0,.2,0,.3,0s.2,0,.3,0c0,0,.2,0,.2,0v.3c-.2,0-.4-.1-.5-.1s-.2,0-.2,0c0,0,0,0,0,.1s0,0,0,.1c0,0,.1,0,.2,0,.1,0,.2,0,.3,0,0,0,.1,0,.2.1,0,0,0,.1,0,.2s0,.2,0,.2c0,0-.1.1-.2.2,0,0-.2,0-.3,0s-.2,0-.3,0Z"/>
      <path class="st0" d="M43.9,41.1c-.1,0-.2-.2-.3-.3,0-.1-.1-.2-.1-.4s0-.3.1-.4c0-.1.2-.2.3-.3.1,0,.3,0,.4,0s.2,0,.3,0c.1,0,.2.1.3.2l-.2.2c0-.1-.2-.2-.4-.2s-.2,0-.2,0c0,0-.1,0-.2.2,0,0,0,.2,0,.2s0,.2,0,.2c0,0,0,.1.2.2,0,0,.2,0,.2,0,.1,0,.3,0,.4-.2l.2.2c0,0-.2.1-.3.2-.1,0-.2,0-.3,0s-.3,0-.4,0Z"/>
      <path class="st0" d="M45.3,41c-.1-.1-.2-.3-.2-.5v-.8h.3v.8c0,.3.1.4.3.4s.2,0,.2,0c0,0,0-.2,0-.3v-.8h.3v.8c0,.2,0,.4-.2.5-.1.1-.3.2-.5.2s-.4,0-.5-.2Z"/>
      <path class="st0" d="M47.9,40.9v.3h-1.1v-1.5h1.1v.3h-.8v.3h.7v.3h-.7v.3h.8Z"/>
    </g>
  </g>
</svg>