<?xml version="1.0" encoding="UTF-8"?>
<svg xmlns="http://www.w3.org/2000/svg" version="1.1" viewBox="0 0 73 73">
  <!-- Generator: Adobe Illustrator 29.4.0, SVG Export Plug-In . SVG Version: 2.1.0 Build 152)  -->
  <defs>
    <style>
      .st0 {
        fill: #d84435;
      }

      .st1 {
        fill: #93c948;
      }

      .st2 {
        fill: none;
        stroke: #5cb0e2;
        stroke-miterlimit: 10;
      }

      .st3 {
        isolation: isolate;
      }

      .st4 {
        fill: #2899f3;
      }

      .st5 {
        opacity: 0;
      }

      .st5, .st6 {
        mix-blend-mode: multiply;
      }

      .st7 {
        fill: #b72821;
      }

      .st6 {
        opacity: .2;
      }

      .st8 {
        fill: #fdfcfd;
      }

      .st9 {
        fill: #e4d8bf;
      }

      .st10 {
        fill: #828181;
      }
    </style>
  </defs>
  <g class="st3">
    <g id="Layer_1">
      <g>
        <g>
          <path class="st8" d="M66.2,16.5v6.2l-16.2,11.1c-.3-1.4-.8-2.8-1.6-4-.8-1.3-1.8-2.4-2.9-3.4l14.4-9.8h6.3Z"/>
          <path class="st6" d="M50.1,34.4c.1.7.2,1.4.2,2.1,0,1.8-.3,3.5-1,5.1-.7,1.6-1.6,3-2.8,4.2-1.2,1.2-2.6,2.2-4.2,2.8-1.6.7-3.4,1-5.1,1s-4.7-.6-6.7-1.8c-.2-.1-.4-.3-.6-.4l1.5-1c1.7,1,3.7,1.6,5.9,1.6,6.4,0,11.6-5.2,11.6-11.6s0-1.2-.1-1.8l1.5-1c0,.2,0,.5.1.7Z"/>
          <path class="st6" d="M45.5,26.3l-1.4,1c-1.9-1.5-4.4-2.3-7-2.3-6.4,0-11.6,5.2-11.6,11.6s.1,2.1.4,3.1l-1.4,1c0-.2-.1-.3-.2-.5-.3-1.1-.5-2.3-.5-3.5,0-1.8.3-3.5,1-5.1.7-1.6,1.6-3,2.8-4.2,1.2-1.2,2.6-2.2,4.2-2.8,1.6-.7,3.4-1,5.1-1s2.9.2,4.3.7c1.3.5,2.6,1.1,3.7,2,.1.1.3.2.4.3Z"/>
          <path class="st1" d="M50,33.7l-1.5,1c0,.6.1,1.2.1,1.8,0,6.4-5.2,11.6-11.6,11.6s-4.2-.6-5.9-1.6l-1.5,1-1.5,1-7.2,4.9-4.6,3.1h49.8V22.6l-16.2,11.1Z"/>
          <path class="st9" d="M6.8,16.5v5.4l16,19.9,1.7-1.2,1.4-1c-.3-1-.4-2-.4-3.1,0-6.4,5.2-11.6,11.6-11.6s5,.9,7,2.3l1.4-1,14.4-9.8H6.8Z"/>
          <path class="st8" d="M29.7,47.5l-1.5,1-7.2,4.9-4.6,3.1H6.8v-3.9l8.8-6-8.8-11v-13.8l16,19.9,1.7-1.2c.5,1.4,1.2,2.8,2.1,4,.9,1.1,1.9,2.1,3.1,2.9Z"/>
          <polygon class="st1" points="6.8 35.6 15.6 46.6 6.8 52.6 6.8 35.6"/>
        </g>
        <path class="st5" d="M39.4,29.6c-1.1,0-2.2.4-3.3,1l3.4-1s0,0-.1,0ZM37.1,23.3c-7.3,0-13.2,5.9-13.2,13.2s5.9,13.2,13.2,13.2,13.2-5.9,13.2-13.2-5.9-13.2-13.2-13.2ZM29.8,35.7c-2.6,2.4-4.3,4-4.3.8,0-6.4,5.2-11.6,11.6-11.6s7.7,4.7,7.7,11.1,0,.9,0,1.2c-.1-1.1-.5-3.6-1.7-5.5l-3.1,10.9c-.2.7-.8,1.1-1.4,1.2,0,0,0,0-.1,0-.6,0-1.2-.4-1.5-1l-2.3-5.1-4.7-2.1ZM44.8,37.2c0,.7,0,.9,0,0h0ZM39.4,29.6c-1.1,0-2.2.4-3.3,1l3.4-1s0,0-.1,0Z"/>
        <path class="st10" d="M66.2,57H6.8c-.3,0-.5-.2-.5-.5V16.5c0-.3.2-.5.5-.5h59.4c.3,0,.5.2.5.5v40.1c0,.3-.2.5-.5.5ZM7.3,56h58.5V17H7.3v39.1Z"/>
        <g>
          <polygon class="st0" points="30.3 35 36 37.5 41.9 31.7 30.3 35"/>
          <polygon class="st7" points="36 37.5 38.6 43.3 41.9 31.7 36 37.5"/>
        </g>
        <path class="st4" d="M37.1,24.9c-6.4,0-11.6,5.2-11.6,11.6s5.2,11.6,11.6,11.6,11.6-5.2,11.6-11.6-5.2-11.6-11.6-11.6ZM40.2,43.7c-.2.7-.8,1.1-1.4,1.2,0,0,0,0-.1,0-.6,0-1.2-.4-1.5-1l-2.3-5.1-4.7-2.1-.4-.2c-.6-.3-1-.9-1-1.6,0-.7.5-1.3,1.2-1.4l6.4-1.8,3.4-1h0l1.7-.5c.1,0,.3,0,.4,0,.4,0,.8.2,1.2.5.4.4.6,1,.4,1.6l-.2.6-3.1,10.9Z"/>
      </g>
      <rect class="st2" x=".5" y=".5" width="72" height="72"/>
    </g>
  </g>
</svg>