<?xml version="1.0" encoding="UTF-8"?>
<svg id="Capa_1" xmlns="http://www.w3.org/2000/svg" version="1.1" viewBox="0 0 2122 2122">
  <!-- Generator: Adobe Illustrator 29.3.0, SVG Export Plug-In . SVG Version: 2.1.0 Build 146)  -->
  <defs>
    <style>
      .st0 {
        fill: #5c4797;
      }

      .st1 {
        fill: none;
      }

      .st2 {
        fill: #9da7d5;
      }

      .st3 {
        fill: #251c3c;
      }

      .st4 {
        fill: #f7efec;
      }
    </style>
  </defs>
  <path class="st4" d="M567.1,1536.1c124.9,130.2,300.8,211.2,495.5,211.2s370.6-81,495.5-211.2c6.9-7,13.6-14.3,20.1-21.7,106.8-121.1,171.6-280.1,171.6-454.2s-24.7-209.2-68.7-299.8c-9.4-1.2-18.8-2.3-28.2-3.2,9.4.9,18.8,2,28.2,3.2-111.4-229.2-346.4-387.3-618.4-387.3s-687.1,307.7-687.1,687.2,27.6,220.5,76.3,314.8c0,0,0,0,0,0,26,50.4,58,97.3,95.1,139.4,6.5,7.4,13.2,14.6,20.1,21.7Z"/>
  <path class="st1" d="M1625.3,754.8c7.3.5,14.6,1.2,21.9,1.8-7.3-.7-14.6-1.3-21.9-1.8Z"/>
  <path class="st1" d="M1408.5,763.8c3.8-.6,7.6-1.2,11.5-1.7-3.8.5-7.7,1.1-11.5,1.7Z"/>
  <path class="st1" d="M1597.9,753.3c5.8.2,11.6.6,17.4.9-5.8-.3-11.6-.7-17.4-.9Z"/>
  <path class="st1" d="M1264.4,795.6c-.7.2-1.5.4-2.2.6,0,0,0,0,0,0,.7-.2,1.5-.4,2.2-.6Z"/>
  <path class="st1" d="M1488.8,754.9c4.4-.3,8.8-.6,13.2-.8-4.4.2-8.8.5-13.2.8Z"/>
  <path class="st1" d="M1461.9,757.2c4.2-.4,8.4-.8,12.7-1.2-4.2.4-8.4.7-12.7,1.2Z"/>
  <path class="st1" d="M1543.2,752.6c4.8,0,9.6,0,14.4,0-4.8,0-9.6,0-14.4,0Z"/>
  <path class="st1" d="M1515.9,753.4c4.6-.2,9.1-.3,13.7-.5-4.6.1-9.1.3-13.7.5Z"/>
  <path class="st1" d="M1570.5,752.6c5.2,0,10.3.2,15.5.4-5.2-.2-10.3-.3-15.5-.4Z"/>
  <path class="st1" d="M603.7,1201.3c4.2-4,8.4-8,12.6-12-4.2,4-8.4,8-12.6,12Z"/>
  <path class="st1" d="M559.2,1245.9c4.1-4.3,8.3-8.7,12.5-12.9-4.2,4.3-8.4,8.6-12.5,12.9Z"/>
  <path class="st1" d="M537.7,1268.9c4.1-4.5,8.2-9,12.4-13.4-4.2,4.4-8.3,8.9-12.4,13.4Z"/>
  <path class="st1" d="M581.2,1223.4c4.2-4.2,8.4-8.3,12.6-12.4-4.2,4.1-8.4,8.3-12.6,12.4Z"/>
  <path class="st1" d="M516.8,1292.4c4-4.7,8.1-9.3,12.2-14-4.1,4.6-8.2,9.3-12.2,14Z"/>
  <path class="st1" d="M452.1,1374.8c5.8-8.3,11.8-16.5,17.9-24.6-6.1,8.1-12.1,16.3-17.9,24.6Z"/>
  <path class="st1" d="M496.3,1316.7c4-5,8.1-9.9,12.2-14.8-4.1,4.9-8.2,9.9-12.2,14.8Z"/>
  <path class="st1" d="M1382.4,768c3.5-.6,7-1.3,10.5-1.8-3.5.6-7,1.2-10.5,1.8Z"/>
  <path class="st1" d="M476,1342.3c4.2-5.5,8.5-11.1,12.9-16.6-4.4,5.5-8.6,11-12.9,16.6Z"/>
  <path class="st1" d="M1337.1,777c.7-.1,1.3-.3,2-.5-.7.1-1.3.3-2,.5Z"/>
  <path class="st1" d="M746.9,1077.1c1.4-1.1,2.8-2.2,4.2-3.3-1.4,1.1-2.8,2.2-4.2,3.3Z"/>
  <path class="st1" d="M1357.4,772.7c2.9-.6,5.7-1.2,8.6-1.7-2.9.6-5.7,1.2-8.6,1.7Z"/>
  <path class="st1" d="M722.3,1097c2.7-2.2,5.4-4.4,8-6.5-2.7,2.2-5.4,4.3-8,6.5Z"/>
  <path class="st1" d="M626.7,1179.7c4.2-3.8,8.3-7.6,12.5-11.4-4.2,3.8-8.4,7.6-12.5,11.4Z"/>
  <path class="st1" d="M698,1117.1c3.4-2.8,6.8-5.7,10.2-8.5-3.4,2.8-6.8,5.6-10.2,8.5Z"/>
  <path class="st1" d="M650.1,1158.5c4-3.6,8.1-7.2,12.1-10.7-4.1,3.6-8.1,7.1-12.1,10.7Z"/>
  <path class="st1" d="M673.9,1137.6c3.8-3.3,7.6-6.5,11.4-9.8-3.8,3.3-7.6,6.5-11.4,9.8Z"/>
  <path class="st1" d="M1435.1,760.1c4-.5,8.1-1,12.1-1.5-4.1.5-8.1,1-12.1,1.5Z"/>
  <path class="st0" d="M913.9,1213.7c-60.3-39.1-104.3-101.2-119.4-173.9-14.5,11.1-29,22.5-43.4,34-1.4,1.1-2.8,2.2-4.2,3.3-5.5,4.4-11,8.9-16.6,13.3-2.7,2.2-5.4,4.3-8,6.5-4.7,3.9-9.4,7.8-14.1,11.7-3.4,2.8-6.8,5.6-10.2,8.5-4.2,3.5-8.4,7.1-12.6,10.7-3.8,3.3-7.6,6.5-11.4,9.8-3.9,3.4-7.8,6.7-11.6,10.1-4.1,3.6-8.1,7.1-12.1,10.7-3.6,3.2-7.3,6.5-10.9,9.8-4.2,3.8-8.4,7.6-12.5,11.4-3.5,3.2-6.9,6.4-10.3,9.6-4.2,4-8.4,8-12.6,12-3.3,3.2-6.6,6.4-9.9,9.6-4.2,4.1-8.4,8.3-12.6,12.4-3.2,3.2-6.4,6.4-9.5,9.6-4.2,4.3-8.4,8.6-12.5,12.9-3.1,3.2-6.1,6.4-9.1,9.6-4.2,4.4-8.3,8.9-12.4,13.4-2.9,3.2-5.8,6.4-8.7,9.6-4.1,4.6-8.2,9.3-12.2,14-2.7,3.2-5.5,6.3-8.2,9.5-4.1,4.9-8.2,9.9-12.2,14.8-2.5,3-5,6-7.5,9.1-4.4,5.5-8.6,11-12.9,16.6-2,2.6-4.1,5.2-6,7.8-6.1,8.1-12.1,16.3-17.9,24.6,0,0-.1.2-.2.2,26,50.4,58,97.3,95.1,139.4,6.5,7.4,13.2,14.6,20.1,21.7,58.1-155,186.7-275.5,346.8-322.4Z"/>
  <path class="st0" d="M1625.3,754.8c-3.4-.2-6.7-.4-10.1-.6-5.8-.3-11.6-.7-17.4-.9-4-.2-7.9-.3-11.9-.4-5.2-.2-10.3-.3-15.5-.4-4.3,0-8.6,0-12.9,0-4.8,0-9.6,0-14.4,0-4.5,0-9,.2-13.5.3-4.6.1-9.1.3-13.7.5-4.7.2-9.3.4-13.9.7-4.4.2-8.8.5-13.2.8-4.8.3-9.5.7-14.3,1.1-4.2.4-8.4.7-12.7,1.2-4.9.5-9.8,1-14.7,1.5-4.1.5-8.1,1-12.1,1.5-5,.6-10,1.2-15.1,1.9-3.8.5-7.7,1.1-11.5,1.7-5.2.8-10.4,1.6-15.6,2.4-3.5.6-7,1.2-10.5,1.8-5.5,1-11,1.9-16.5,3-2.9.5-5.7,1.2-8.6,1.7-6.1,1.2-12.2,2.4-18.3,3.8-.7.1-1.3.3-2,.5-24.4,5.4-48.6,11.6-72.7,18.6-.7.2-1.5.4-2.2.6,46,49,74.3,115,74.3,187.6s-49.9,181.1-125.2,229.9c0,0,0,0,0,0,160.2,46.9,288.9,167.4,346.8,322.4,6.9-7,13.6-14.3,20.1-21.7,106.8-121.1,171.6-280.1,171.6-454.2s-24.7-209.2-68.7-299.8c-9.4-1.2-18.8-2.3-28.2-3.2-1.9-.2-3.7-.3-5.6-.5-7.3-.7-14.6-1.3-21.9-1.8Z"/>
  <path class="st3" d="M375.5,1060.2c0,113.4,27.6,220.5,76.3,314.8,0,0,0,0,0,0,0,0,.1-.2.2-.2,5.8-8.3,11.8-16.5,17.9-24.6,2-2.6,4-5.2,6-7.8,4.2-5.5,8.5-11.1,12.9-16.6,2.4-3.1,5-6.1,7.5-9.1,4-5,8.1-9.9,12.2-14.8,2.7-3.2,5.5-6.3,8.2-9.5,4-4.7,8.1-9.3,12.2-14,2.9-3.2,5.8-6.4,8.7-9.6,4.1-4.5,8.2-9,12.4-13.4,3-3.2,6.1-6.4,9.1-9.6,4.1-4.3,8.3-8.7,12.5-12.9,3.2-3.2,6.4-6.4,9.5-9.6,4.2-4.2,8.4-8.3,12.6-12.4,3.3-3.2,6.6-6.4,9.9-9.6,4.2-4,8.4-8,12.6-12,3.4-3.2,6.9-6.4,10.3-9.6,4.2-3.8,8.3-7.6,12.5-11.4,3.6-3.3,7.3-6.5,10.9-9.8,4-3.6,8.1-7.2,12.1-10.7,3.9-3.4,7.7-6.8,11.6-10.1,3.8-3.3,7.6-6.5,11.4-9.8,4.2-3.6,8.4-7.2,12.6-10.7,3.4-2.8,6.8-5.7,10.2-8.5,4.7-3.9,9.4-7.8,14.1-11.7,2.7-2.2,5.4-4.4,8-6.5,5.5-4.5,11-8.9,16.6-13.3,1.4-1.1,2.8-2.2,4.2-3.3,14.5-11.5,29-22.9,43.4-34-3.7-18.1-5.7-36.8-5.7-56,0-151.3,122.5-273.8,273.8-273.8s149.6,33.2,199.5,86.2c.7-.2,1.5-.4,2.2-.6,24.1-7,48.4-13.3,72.7-18.6.7-.1,1.3-.3,2-.5,6.1-1.3,12.2-2.5,18.3-3.8,2.9-.6,5.7-1.2,8.6-1.7,5.5-1.1,11-2,16.5-3,3.5-.6,7-1.3,10.5-1.8,5.2-.9,10.4-1.6,15.6-2.4,3.8-.6,7.6-1.2,11.5-1.7,5-.7,10-1.3,15.1-1.9,4-.5,8.1-1,12.1-1.5,4.9-.5,9.8-1,14.7-1.5,4.2-.4,8.4-.8,12.7-1.2,4.8-.4,9.5-.8,14.3-1.1,4.4-.3,8.8-.6,13.2-.8,4.6-.3,9.3-.5,13.9-.7,4.6-.2,9.1-.3,13.7-.5,4.5-.1,9-.2,13.5-.3,4.8,0,9.6,0,14.4,0,4.3,0,8.6,0,12.9,0,5.2,0,10.3.2,15.5.4,4,.1,7.9.2,11.9.4,5.8.2,11.6.6,17.4.9,3.4.2,6.7.4,10.1.6,7.3.5,14.6,1.2,21.9,1.8,1.9.2,3.7.3,5.6.5,9.4.9,18.8,2,28.2,3.2-111.4-229.2-346.4-387.3-618.4-387.3s-687.1,307.7-687.1,687.2Z"/>
  <path class="st2" d="M1262.1,796.2c-49.9-53.1-120.8-86.2-199.5-86.2-151.3,0-273.8,122.5-273.8,273.8s2,37.9,5.7,56c7.1-5.5,14.3-11,21.4-16.4,139.9-101.8,289.9-181.3,446.2-227.2Z"/>
  <path class="st2" d="M351,1228.8c-12.8-54.1-19.6-110.5-19.6-168.6s9.6-136,27.5-199.3l-25.3-7.2h0c-18.6,65.7-28.5,134.9-28.5,206.5s7,118.6,20.3,174.6l25.6-6.1Z"/>
  <path class="st2" d="M1614.1,1579.5l-19.1-18.1c-1.7,1.7-3.3,3.5-5,5.2h0c-133,138.7-320.1,224.8-527.3,224.8-192.3,0-367.2-74.2-497.7-195.6l-17.9,19.3h0c135.1,125.8,316.5,202.7,515.6,202.7,214.6,0,408.6-89.3,546.3-232.8h0c1.7-1.7,3.5-3.5,5.2-5.4Z"/>
  <polygon class="st2" points="1721 1435.2 1721 1435.2 1721 1435.2 1721 1435.2"/>
  <path class="st2" d="M1761.1,1277.5c-15.8,50.8-37,99.3-62.9,144.7l22.8,13c26.9-47.1,48.8-97.3,65.2-149.9l-25.1-7.8Z"/>
  <path class="st2" d="M1720.8,741.2c36.3,74.7,60.2,156.4,69.2,242.6l26.2-2.7h0c-9.3-89.3-34.1-174-71.7-251.4-50.3-103.6-123.6-194-213.1-264.6l-16.3,20.6c86.5,68.2,157.2,155.5,205.7,255.5Z"/>
  <path class="st2" d="M1366.6,366.1h0c-60.1-26.4-124.2-45.1-191.2-55.2l-3.9,26c64.7,9.7,126.6,27.8,184.6,53.2l10.6-24.1Z"/>
  <path class="st2" d="M1025,329.9l-1.3-26.3h0c-28.4,1.4-56.4,4.4-83.9,8.9l4.2,26c26.5-4.3,53.5-7.2,81-8.6Z"/>
  <path class="st2" d="M753.1,397.5l-11.1-23.8h0c-166.8,78.1-300.4,215.1-374.1,384.3l24.1,10.5c71.1-163.3,200.2-295.6,361.1-371Z"/>
</svg>